mtllib Trividya-physical-mockup-replica-grouped-v1.mtl
# Units: mm; model scale 1:10

o lower_shell_core
g lower_shell_core
usemtl mat_235_234_228
v -58.000000 59.000000 0.000000
v -58.000000 59.000000 90.000000
v -58.000000 171.000000 0.000000
v -58.000000 171.000000 90.000000
v 58.000000 59.000000 0.000000
v 58.000000 59.000000 90.000000
v 58.000000 171.000000 0.000000
v 58.000000 171.000000 90.000000
f 2 4 1
f 5 2 1
f 1 4 3
f 3 5 1
f 2 8 4
f 6 2 5
f 6 8 2
f 4 8 3
f 7 5 3
f 3 8 7
f 7 6 5
f 8 6 7

o left_plywood_shell
g left_plywood_shell
usemtl mat_177_113_58
v -60.000000 12.000000 8.000000
v -60.000000 6.000000 52.000000
v -60.000000 17.000000 111.000000
v -60.000000 37.000000 155.000000
v -60.000000 68.000000 184.000000
v -60.000000 174.000000 184.000000
v -60.000000 183.000000 8.000000
v -57.000000 12.000000 8.000000
v -57.000000 6.000000 52.000000
v -57.000000 17.000000 111.000000
v -57.000000 37.000000 155.000000
v -57.000000 68.000000 184.000000
v -57.000000 174.000000 184.000000
v -57.000000 183.000000 8.000000
f 9 11 10
f 16 17 18
f 9 12 11
f 16 18 19
f 9 13 12
f 16 19 20
f 9 14 13
f 16 20 21
f 9 15 14
f 16 21 22
f 9 10 17
f 9 17 16
f 10 11 18
f 10 18 17
f 11 12 19
f 11 19 18
f 12 13 20
f 12 20 19
f 13 14 21
f 13 21 20
f 14 15 22
f 14 22 21
f 15 9 16
f 15 16 22

o right_plywood_shell
g right_plywood_shell
usemtl mat_177_113_58
v 57.000000 12.000000 8.000000
v 57.000000 6.000000 52.000000
v 57.000000 17.000000 111.000000
v 57.000000 37.000000 155.000000
v 57.000000 68.000000 184.000000
v 57.000000 174.000000 184.000000
v 57.000000 183.000000 8.000000
v 60.000000 12.000000 8.000000
v 60.000000 6.000000 52.000000
v 60.000000 17.000000 111.000000
v 60.000000 37.000000 155.000000
v 60.000000 68.000000 184.000000
v 60.000000 174.000000 184.000000
v 60.000000 183.000000 8.000000
f 23 25 24
f 30 31 32
f 23 26 25
f 30 32 33
f 23 27 26
f 30 33 34
f 23 28 27
f 30 34 35
f 23 29 28
f 30 35 36
f 23 24 31
f 23 31 30
f 24 25 32
f 24 32 31
f 25 26 33
f 25 33 32
f 26 27 34
f 26 34 33
f 27 28 35
f 27 35 34
f 28 29 36
f 28 36 35
f 29 23 30
f 29 30 36

o left_white_side_panel
g left_white_side_panel
usemtl mat_235_234_228
v -61.000000 25.000000 8.000000
v -61.000000 155.000000 8.000000
v -61.000000 155.000000 70.000000
v -61.000000 145.000000 94.000000
v -61.000000 40.000000 94.000000
v -59.800000 25.000000 8.000000
v -59.800000 155.000000 8.000000
v -59.800000 155.000000 70.000000
v -59.800000 145.000000 94.000000
v -59.800000 40.000000 94.000000
f 37 39 38
f 42 43 44
f 37 40 39
f 42 44 45
f 37 41 40
f 42 45 46
f 37 38 43
f 37 43 42
f 38 39 44
f 38 44 43
f 39 40 45
f 39 45 44
f 40 41 46
f 40 46 45
f 41 37 42
f 41 42 46

o right_white_side_panel
g right_white_side_panel
usemtl mat_235_234_228
v 59.800000 25.000000 8.000000
v 59.800000 155.000000 8.000000
v 59.800000 155.000000 70.000000
v 59.800000 145.000000 94.000000
v 59.800000 40.000000 94.000000
v 61.000000 25.000000 8.000000
v 61.000000 155.000000 8.000000
v 61.000000 155.000000 70.000000
v 61.000000 145.000000 94.000000
v 61.000000 40.000000 94.000000
f 47 49 48
f 52 53 54
f 47 50 49
f 52 54 55
f 47 51 50
f 52 55 56
f 47 48 53
f 47 53 52
f 48 49 54
f 48 54 53
f 49 50 55
f 49 55 54
f 50 51 56
f 50 56 55
f 51 47 52
f 51 52 56

o canopy_segment_1
g canopy_segment_1
usemtl mat_24_27_30
v -56.000000 8.895868 27.913859
v -56.000000 7.104132 28.086141
v -56.000000 11.395868 53.913859
v -56.000000 9.604132 54.086141
v 56.000000 8.895868 27.913859
v 56.000000 7.104132 28.086141
v 56.000000 11.395868 53.913859
v 56.000000 9.604132 54.086141
f 58 60 57
f 61 58 57
f 57 60 59
f 59 61 57
f 58 64 60
f 62 58 61
f 62 64 58
f 60 64 59
f 63 61 59
f 59 64 63
f 63 62 61
f 64 62 63

o canopy_segment_2
g canopy_segment_2
usemtl mat_24_27_30
v -56.000000 11.376687 53.796483
v -56.000000 9.623313 54.203517
v -56.000000 17.876687 81.796483
v -56.000000 16.123313 82.203517
v 56.000000 11.376687 53.796483
v 56.000000 9.623313 54.203517
v 56.000000 17.876687 81.796483
v 56.000000 16.123313 82.203517
f 66 68 65
f 69 66 65
f 65 68 67
f 67 69 65
f 66 72 68
f 70 66 69
f 70 72 66
f 68 72 67
f 71 69 67
f 67 72 71
f 71 70 69
f 72 70 71

o canopy_segment_3
g canopy_segment_3
usemtl mat_24_27_30
v -56.000000 17.835629 81.665748
v -56.000000 16.164371 82.334252
v -56.000000 29.835629 111.665748
v -56.000000 28.164371 112.334252
v 56.000000 17.835629 81.665748
v 56.000000 16.164371 82.334252
v 56.000000 29.835629 111.665748
v 56.000000 28.164371 112.334252
f 74 76 73
f 77 74 73
f 73 76 75
f 75 77 73
f 74 80 76
f 78 74 77
f 78 80 74
f 76 80 75
f 79 77 75
f 75 80 79
f 79 78 77
f 80 78 79

o canopy_segment_4
g canopy_segment_4
usemtl mat_24_27_30
v -56.000000 29.736026 111.482056
v -56.000000 28.263974 112.517944
v -56.000000 48.736026 138.482056
v -56.000000 47.263974 139.517944
v 56.000000 29.736026 111.482056
v 56.000000 28.263974 112.517944
v 56.000000 48.736026 138.482056
v 56.000000 47.263974 139.517944
f 82 84 81
f 85 82 81
f 81 84 83
f 83 85 81
f 82 88 84
f 86 82 85
f 86 88 82
f 84 88 83
f 87 85 83
f 83 88 87
f 87 86 85
f 88 86 87

o canopy_segment_5
g canopy_segment_5
usemtl mat_24_27_30
v -56.000000 48.656166 138.384008
v -56.000000 47.343834 139.615992
v -56.000000 71.656166 162.884008
v -56.000000 70.343834 164.115992
v 56.000000 48.656166 138.384008
v 56.000000 47.343834 139.615992
v 56.000000 71.656166 162.884008
v 56.000000 70.343834 164.115992
f 90 92 89
f 93 90 89
f 89 92 91
f 91 93 89
f 90 96 92
f 94 90 93
f 94 96 90
f 92 96 91
f 95 93 91
f 91 96 95
f 95 94 93
f 96 94 95

o canopy_segment_6
g canopy_segment_6
usemtl mat_24_27_30
v -56.000000 71.518358 162.764266
v -56.000000 70.481642 164.235734
v -56.000000 93.518358 178.264266
v -56.000000 92.481642 179.735734
v 56.000000 71.518358 162.764266
v 56.000000 70.481642 164.235734
v 56.000000 93.518358 178.264266
v 56.000000 92.481642 179.735734
f 98 100 97
f 101 98 97
f 97 100 99
f 99 101 97
f 98 104 100
f 102 98 101
f 102 104 98
f 100 104 99
f 103 101 99
f 99 104 103
f 103 102 101
f 104 102 103

o canopy_segment_7
g canopy_segment_7
usemtl mat_24_27_30
v -56.000000 93.274298 178.142818
v -56.000000 92.725702 179.857182
v -56.000000 118.274298 186.142818
v -56.000000 117.725702 187.857182
v 56.000000 93.274298 178.142818
v 56.000000 92.725702 179.857182
v 56.000000 118.274298 186.142818
v 56.000000 117.725702 187.857182
f 106 108 105
f 109 106 105
f 105 108 107
f 107 109 105
f 106 112 108
f 110 106 109
f 110 112 106
f 108 112 107
f 111 109 107
f 107 112 111
f 111 110 109
f 112 110 111

o front_trapezoid_window
g front_trapezoid_window
usemtl mat_42_65_78
v -23.500000 42.208837 129.620495
v -23.500000 41.331212 130.438893
v -23.500000 62.668788 151.561107
v -23.500000 61.791163 152.379505
v 23.500000 42.208837 129.620495
v 23.500000 41.331212 130.438893
v 23.500000 62.668788 151.561107
v 23.500000 61.791163 152.379505
f 114 116 113
f 117 114 113
f 113 116 115
f 115 117 113
f 114 120 116
f 118 114 117
f 118 120 114
f 116 120 115
f 119 117 115
f 115 120 119
f 119 118 117
f 120 118 119

o window_top_frame
g window_top_frame
usemtl mat_24_27_30
v -27.500000 39.300000 152.300000
v -27.500000 39.300000 154.700000
v -27.500000 41.700000 152.300000
v -27.500000 41.700000 154.700000
v 27.500000 39.300000 152.300000
v 27.500000 39.300000 154.700000
v 27.500000 41.700000 152.300000
v 27.500000 41.700000 154.700000
f 122 124 121
f 125 122 121
f 121 124 123
f 123 125 121
f 122 128 124
f 126 122 125
f 126 128 122
f 124 128 123
f 127 125 123
f 123 128 127
f 127 126 125
f 128 126 127

o window_lower_frame
g window_lower_frame
usemtl mat_24_27_30
v -22.000000 62.800000 132.800000
v -22.000000 62.800000 135.200000
v -22.000000 65.200000 132.800000
v -22.000000 65.200000 135.200000
v 22.000000 62.800000 132.800000
v 22.000000 62.800000 135.200000
v 22.000000 65.200000 132.800000
v 22.000000 65.200000 135.200000
f 130 132 129
f 133 130 129
f 129 132 131
f 131 133 129
f 130 136 132
f 134 130 133
f 134 136 130
f 132 136 131
f 135 133 131
f 131 136 135
f 135 134 133
f 136 134 135

o front_lower_bumper
g front_lower_bumper
usemtl mat_177_113_58
v -61.000000 -3.000000 5.000000
v -61.000000 -3.000000 16.000000
v -61.000000 9.000000 5.000000
v -61.000000 9.000000 16.000000
v 61.000000 -3.000000 5.000000
v 61.000000 -3.000000 16.000000
v 61.000000 9.000000 5.000000
v 61.000000 9.000000 16.000000
f 138 140 137
f 141 138 137
f 137 140 139
f 139 141 137
f 138 144 140
f 142 138 141
f 142 144 138
f 140 144 139
f 143 141 139
f 139 144 143
f 143 142 141
f 144 142 143

o canopy_title_trim
g canopy_title_trim
usemtl mat_235_234_228
v -31.000000 83.800000 167.750000
v -31.000000 83.800000 171.250000
v -31.000000 86.200000 167.750000
v -31.000000 86.200000 171.250000
v 31.000000 83.800000 167.750000
v 31.000000 83.800000 171.250000
v 31.000000 86.200000 167.750000
v 31.000000 86.200000 171.250000
f 146 148 145
f 149 146 145
f 145 148 147
f 147 149 145
f 146 152 148
f 150 146 149
f 150 152 146
f 148 152 147
f 151 149 147
f 147 152 151
f 151 150 149
f 152 150 151

o rear_top_equipment_shelf
g rear_top_equipment_shelf
usemtl mat_24_27_30
v -57.000000 156.000000 157.500000
v -57.000000 156.000000 170.500000
v -57.000000 186.000000 157.500000
v -57.000000 186.000000 170.500000
v 57.000000 156.000000 157.500000
v 57.000000 156.000000 170.500000
v 57.000000 186.000000 157.500000
v 57.000000 186.000000 170.500000
f 154 156 153
f 157 154 153
f 153 156 155
f 155 157 153
f 154 160 156
f 158 154 157
f 158 160 154
f 156 160 155
f 159 157 155
f 155 160 159
f 159 158 157
f 160 158 159

o rear_equipment_bay_left
g rear_equipment_bay_left
usemtl mat_45_49_52
v -55.500000 159.500000 125.000000
v -55.500000 159.500000 151.000000
v -55.500000 192.500000 125.000000
v -55.500000 192.500000 151.000000
v -14.500000 159.500000 125.000000
v -14.500000 159.500000 151.000000
v -14.500000 192.500000 125.000000
v -14.500000 192.500000 151.000000
f 162 164 161
f 165 162 161
f 161 164 163
f 163 165 161
f 162 168 164
f 166 162 165
f 166 168 162
f 164 168 163
f 167 165 163
f 163 168 167
f 167 166 165
f 168 166 167

o rear_equipment_bay_right
g rear_equipment_bay_right
usemtl mat_45_49_52
v 14.500000 159.500000 125.000000
v 14.500000 159.500000 151.000000
v 14.500000 192.500000 125.000000
v 14.500000 192.500000 151.000000
v 55.500000 159.500000 125.000000
v 55.500000 159.500000 151.000000
v 55.500000 192.500000 125.000000
v 55.500000 192.500000 151.000000
f 170 172 169
f 173 170 169
f 169 172 171
f 171 173 169
f 170 176 172
f 174 170 173
f 174 176 170
f 172 176 171
f 175 173 171
f 171 176 175
f 175 174 173
f 176 174 175

o rear_center_sensor_housing
g rear_center_sensor_housing
usemtl mat_24_27_30
v -17.500000 165.500000 165.000000
v -17.500000 165.500000 187.000000
v -17.500000 190.500000 165.000000
v -17.500000 190.500000 187.000000
v 17.500000 165.500000 165.000000
v 17.500000 165.500000 187.000000
v 17.500000 190.500000 165.000000
v 17.500000 190.500000 187.000000
f 178 180 177
f 181 178 177
f 177 180 179
f 179 181 177
f 178 184 180
f 182 178 181
f 182 184 178
f 180 184 179
f 183 181 179
f 179 184 183
f 183 182 181
f 184 182 183

o rear_service_backplate
g rear_service_backplate
usemtl mat_235_234_228
v -45.000000 171.000000 29.000000
v -45.000000 171.000000 101.000000
v -45.000000 174.000000 29.000000
v -45.000000 174.000000 101.000000
v 45.000000 171.000000 29.000000
v 45.000000 171.000000 101.000000
v 45.000000 174.000000 29.000000
v 45.000000 174.000000 101.000000
f 186 188 185
f 189 186 185
f 185 188 187
f 187 189 185
f 186 192 188
f 190 186 189
f 190 192 186
f 188 192 187
f 191 189 187
f 187 192 191
f 191 190 189
f 192 190 191

o rear_upper_service_door
g rear_upper_service_door
usemtl mat_177_113_58
v -31.000000 172.750000 87.000000
v -31.000000 172.750000 123.000000
v -31.000000 176.250000 87.000000
v -31.000000 176.250000 123.000000
v 31.000000 172.750000 87.000000
v 31.000000 172.750000 123.000000
v 31.000000 176.250000 87.000000
v 31.000000 176.250000 123.000000
f 194 196 193
f 197 194 193
f 193 196 195
f 195 197 193
f 194 200 196
f 198 194 197
f 198 200 194
f 196 200 195
f 199 197 195
f 195 200 199
f 199 198 197
f 200 198 199

o rear_lower_service_door
g rear_lower_service_door
usemtl mat_177_113_58
v -26.500000 173.750000 25.000000
v -26.500000 173.750000 61.000000
v -26.500000 177.250000 25.000000
v -26.500000 177.250000 61.000000
v 26.500000 173.750000 25.000000
v 26.500000 173.750000 61.000000
v 26.500000 177.250000 25.000000
v 26.500000 177.250000 61.000000
f 202 204 201
f 205 202 201
f 201 204 203
f 203 205 201
f 202 208 204
f 206 202 205
f 206 208 202
f 204 208 203
f 207 205 203
f 203 208 207
f 207 206 205
f 208 206 207

o rear_upper_service_opening
g rear_upper_service_opening
usemtl mat_24_27_30
v -16.500000 175.750000 102.000000
v -16.500000 175.750000 114.000000
v -16.500000 178.250000 102.000000
v -16.500000 178.250000 114.000000
v 16.500000 175.750000 102.000000
v 16.500000 175.750000 114.000000
v 16.500000 178.250000 102.000000
v 16.500000 178.250000 114.000000
f 210 212 209
f 213 210 209
f 209 212 211
f 211 213 209
f 210 216 212
f 214 210 213
f 214 216 210
f 212 216 211
f 215 213 211
f 211 216 215
f 215 214 213
f 216 214 215

o rear_lower_service_opening
g rear_lower_service_opening
usemtl mat_24_27_30
v -15.000000 176.750000 28.500000
v -15.000000 176.750000 43.500000
v -15.000000 179.250000 28.500000
v -15.000000 179.250000 43.500000
v 15.000000 176.750000 28.500000
v 15.000000 176.750000 43.500000
v 15.000000 179.250000 28.500000
v 15.000000 179.250000 43.500000
f 218 220 217
f 221 218 217
f 217 220 219
f 219 221 217
f 218 224 220
f 222 218 221
f 222 224 218
f 220 224 219
f 223 221 219
f 219 224 223
f 223 222 221
f 224 222 223

o hazard_label_panel
g hazard_label_panel
usemtl mat_24_27_30
v -20.500000 176.900000 11.000000
v -20.500000 176.900000 23.000000
v -20.500000 179.100000 11.000000
v -20.500000 179.100000 23.000000
v 20.500000 176.900000 11.000000
v 20.500000 176.900000 23.000000
v 20.500000 179.100000 11.000000
v 20.500000 179.100000 23.000000
f 226 228 225
f 229 226 225
f 225 228 227
f 227 229 225
f 226 232 228
f 230 226 229
f 230 232 226
f 228 232 227
f 231 229 227
f 227 232 231
f 231 230 229
f 232 230 231

o hazard_stripe_1
g hazard_stripe_1
usemtl mat_245_180_45
v -18.900000 178.300000 12.500000
v -18.900000 178.300000 21.500000
v -18.900000 180.700000 12.500000
v -18.900000 180.700000 21.500000
v -17.100000 178.300000 12.500000
v -17.100000 178.300000 21.500000
v -17.100000 180.700000 12.500000
v -17.100000 180.700000 21.500000
f 234 236 233
f 237 234 233
f 233 236 235
f 235 237 233
f 234 240 236
f 238 234 237
f 238 240 234
f 236 240 235
f 239 237 235
f 235 240 239
f 239 238 237
f 240 238 239

o hazard_stripe_2
g hazard_stripe_2
usemtl mat_245_180_45
v -14.400000 178.300000 12.500000
v -14.400000 178.300000 21.500000
v -14.400000 180.700000 12.500000
v -14.400000 180.700000 21.500000
v -12.600000 178.300000 12.500000
v -12.600000 178.300000 21.500000
v -12.600000 180.700000 12.500000
v -12.600000 180.700000 21.500000
f 242 244 241
f 245 242 241
f 241 244 243
f 243 245 241
f 242 248 244
f 246 242 245
f 246 248 242
f 244 248 243
f 247 245 243
f 243 248 247
f 247 246 245
f 248 246 247

o hazard_stripe_3
g hazard_stripe_3
usemtl mat_245_180_45
v -9.900000 178.300000 12.500000
v -9.900000 178.300000 21.500000
v -9.900000 180.700000 12.500000
v -9.900000 180.700000 21.500000
v -8.100000 178.300000 12.500000
v -8.100000 178.300000 21.500000
v -8.100000 180.700000 12.500000
v -8.100000 180.700000 21.500000
f 250 252 249
f 253 250 249
f 249 252 251
f 251 253 249
f 250 256 252
f 254 250 253
f 254 256 250
f 252 256 251
f 255 253 251
f 251 256 255
f 255 254 253
f 256 254 255

o hazard_stripe_4
g hazard_stripe_4
usemtl mat_245_180_45
v -5.400000 178.300000 12.500000
v -5.400000 178.300000 21.500000
v -5.400000 180.700000 12.500000
v -5.400000 180.700000 21.500000
v -3.600000 178.300000 12.500000
v -3.600000 178.300000 21.500000
v -3.600000 180.700000 12.500000
v -3.600000 180.700000 21.500000
f 258 260 257
f 261 258 257
f 257 260 259
f 259 261 257
f 258 264 260
f 262 258 261
f 262 264 258
f 260 264 259
f 263 261 259
f 259 264 263
f 263 262 261
f 264 262 263

o hazard_stripe_5
g hazard_stripe_5
usemtl mat_245_180_45
v -0.900000 178.300000 12.500000
v -0.900000 178.300000 21.500000
v -0.900000 180.700000 12.500000
v -0.900000 180.700000 21.500000
v 0.900000 178.300000 12.500000
v 0.900000 178.300000 21.500000
v 0.900000 180.700000 12.500000
v 0.900000 180.700000 21.500000
f 266 268 265
f 269 266 265
f 265 268 267
f 267 269 265
f 266 272 268
f 270 266 269
f 270 272 266
f 268 272 267
f 271 269 267
f 267 272 271
f 271 270 269
f 272 270 271

o hazard_stripe_6
g hazard_stripe_6
usemtl mat_245_180_45
v 3.600000 178.300000 12.500000
v 3.600000 178.300000 21.500000
v 3.600000 180.700000 12.500000
v 3.600000 180.700000 21.500000
v 5.400000 178.300000 12.500000
v 5.400000 178.300000 21.500000
v 5.400000 180.700000 12.500000
v 5.400000 180.700000 21.500000
f 274 276 273
f 277 274 273
f 273 276 275
f 275 277 273
f 274 280 276
f 278 274 277
f 278 280 274
f 276 280 275
f 279 277 275
f 275 280 279
f 279 278 277
f 280 278 279

o hazard_stripe_7
g hazard_stripe_7
usemtl mat_245_180_45
v 8.100000 178.300000 12.500000
v 8.100000 178.300000 21.500000
v 8.100000 180.700000 12.500000
v 8.100000 180.700000 21.500000
v 9.900000 178.300000 12.500000
v 9.900000 178.300000 21.500000
v 9.900000 180.700000 12.500000
v 9.900000 180.700000 21.500000
f 282 284 281
f 285 282 281
f 281 284 283
f 283 285 281
f 282 288 284
f 286 282 285
f 286 288 282
f 284 288 283
f 287 285 283
f 283 288 287
f 287 286 285
f 288 286 287

o hazard_stripe_8
g hazard_stripe_8
usemtl mat_245_180_45
v 12.600000 178.300000 12.500000
v 12.600000 178.300000 21.500000
v 12.600000 180.700000 12.500000
v 12.600000 180.700000 21.500000
v 14.400000 178.300000 12.500000
v 14.400000 178.300000 21.500000
v 14.400000 180.700000 12.500000
v 14.400000 180.700000 21.500000
f 290 292 289
f 293 290 289
f 289 292 291
f 291 293 289
f 290 296 292
f 294 290 293
f 294 296 290
f 292 296 291
f 295 293 291
f 291 296 295
f 295 294 293
f 296 294 295

o hazard_stripe_9
g hazard_stripe_9
usemtl mat_245_180_45
v 17.100000 178.300000 12.500000
v 17.100000 178.300000 21.500000
v 17.100000 180.700000 12.500000
v 17.100000 180.700000 21.500000
v 18.900000 178.300000 12.500000
v 18.900000 178.300000 21.500000
v 18.900000 180.700000 12.500000
v 18.900000 180.700000 21.500000
f 298 300 297
f 301 298 297
f 297 300 299
f 299 301 297
f 298 304 300
f 302 298 301
f 302 304 298
f 300 304 299
f 303 301 299
f 299 304 303
f 303 302 301
f 304 302 303

o rear_handle_L
g rear_handle_L
usemtl mat_24_27_30
v -47.500000 177.750000 70.600000
v -47.500000 177.750000 73.400000
v -47.500000 181.250000 70.600000
v -47.500000 181.250000 73.400000
v -30.500000 177.750000 70.600000
v -30.500000 177.750000 73.400000
v -30.500000 181.250000 70.600000
v -30.500000 181.250000 73.400000
f 306 308 305
f 309 306 305
f 305 308 307
f 307 309 305
f 306 312 308
f 310 306 309
f 310 312 306
f 308 312 307
f 311 309 307
f 307 312 311
f 311 310 309
f 312 310 311

o rear_handle_R
g rear_handle_R
usemtl mat_24_27_30
v 30.500000 177.750000 70.600000
v 30.500000 177.750000 73.400000
v 30.500000 181.250000 70.600000
v 30.500000 181.250000 73.400000
v 47.500000 177.750000 70.600000
v 47.500000 177.750000 73.400000
v 47.500000 181.250000 70.600000
v 47.500000 181.250000 73.400000
f 314 316 313
f 317 314 313
f 313 316 315
f 315 317 313
f 314 320 316
f 318 314 317
f 318 320 314
f 316 320 315
f 319 317 315
f 315 320 319
f 319 318 317
f 320 318 319

o rear_vent_tower
g rear_vent_tower
usemtl mat_24_27_30
v -37.500000 177.750000 81.000000
v -37.500000 177.750000 129.000000
v -37.500000 181.250000 81.000000
v -37.500000 181.250000 129.000000
v -10.500000 177.750000 81.000000
v -10.500000 177.750000 129.000000
v -10.500000 181.250000 81.000000
v -10.500000 181.250000 129.000000
f 322 324 321
f 325 322 321
f 321 324 323
f 323 325 321
f 322 328 324
f 326 322 325
f 326 328 322
f 324 328 323
f 327 325 323
f 323 328 327
f 327 326 325
f 328 326 327

o rear_vent_disc_1
g rear_vent_disc_1
usemtl mat_125_128_130
v -24.000000 183.300000 93.000000
v -16.200000 183.300000 93.000000
v -16.200000 180.300000 93.000000
v -24.000000 180.300000 93.000000
v -16.349875 183.300000 94.521705
v -16.349875 180.300000 94.521705
v -16.793740 183.300000 95.984931
v -16.793740 180.300000 95.984931
v -17.514537 183.300000 97.333448
v -17.514537 180.300000 97.333448
v -18.484567 183.300000 98.515433
v -18.484567 180.300000 98.515433
v -19.666552 183.300000 99.485463
v -19.666552 180.300000 99.485463
v -21.015069 183.300000 100.206260
v -21.015069 180.300000 100.206260
v -22.478295 183.300000 100.650125
v -22.478295 180.300000 100.650125
v -24.000000 183.300000 100.800000
v -24.000000 180.300000 100.800000
v -25.521705 183.300000 100.650125
v -25.521705 180.300000 100.650125
v -26.984931 183.300000 100.206260
v -26.984931 180.300000 100.206260
v -28.333448 183.300000 99.485463
v -28.333448 180.300000 99.485463
v -29.515433 183.300000 98.515433
v -29.515433 180.300000 98.515433
v -30.485463 183.300000 97.333448
v -30.485463 180.300000 97.333448
v -31.206260 183.300000 95.984931
v -31.206260 180.300000 95.984931
v -31.650125 183.300000 94.521705
v -31.650125 180.300000 94.521705
v -31.800000 183.300000 93.000000
v -31.800000 180.300000 93.000000
v -31.650125 183.300000 91.478295
v -31.650125 180.300000 91.478295
v -31.206260 183.300000 90.015069
v -31.206260 180.300000 90.015069
v -30.485463 183.300000 88.666552
v -30.485463 180.300000 88.666552
v -29.515433 183.300000 87.484567
v -29.515433 180.300000 87.484567
v -28.333448 183.300000 86.514537
v -28.333448 180.300000 86.514537
v -26.984931 183.300000 85.793740
v -26.984931 180.300000 85.793740
v -25.521705 183.300000 85.349875
v -25.521705 180.300000 85.349875
v -24.000000 183.300000 85.200000
v -24.000000 180.300000 85.200000
v -22.478295 183.300000 85.349875
v -22.478295 180.300000 85.349875
v -21.015069 183.300000 85.793740
v -21.015069 180.300000 85.793740
v -19.666552 183.300000 86.514537
v -19.666552 180.300000 86.514537
v -18.484567 183.300000 87.484567
v -18.484567 180.300000 87.484567
v -17.514537 183.300000 88.666552
v -17.514537 180.300000 88.666552
v -16.793740 183.300000 90.015069
v -16.793740 180.300000 90.015069
v -16.349875 183.300000 91.478295
v -16.349875 180.300000 91.478295
f 330 329 333
f 330 333 331
f 331 333 334
f 331 334 332
f 333 329 335
f 333 335 334
f 334 335 336
f 334 336 332
f 335 329 337
f 335 337 336
f 336 337 338
f 336 338 332
f 337 329 339
f 337 339 338
f 338 339 340
f 338 340 332
f 339 329 341
f 339 341 340
f 340 341 342
f 340 342 332
f 341 329 343
f 341 343 342
f 342 343 344
f 342 344 332
f 343 329 345
f 343 345 344
f 344 345 346
f 344 346 332
f 345 329 347
f 345 347 346
f 346 347 348
f 346 348 332
f 347 329 349
f 347 349 348
f 348 349 350
f 348 350 332
f 349 329 351
f 349 351 350
f 350 351 352
f 350 352 332
f 351 329 353
f 351 353 352
f 352 353 354
f 352 354 332
f 353 329 355
f 353 355 354
f 354 355 356
f 354 356 332
f 355 329 357
f 355 357 356
f 356 357 358
f 356 358 332
f 357 329 359
f 357 359 358
f 358 359 360
f 358 360 332
f 359 329 361
f 359 361 360
f 360 361 362
f 360 362 332
f 361 329 363
f 361 363 362
f 362 363 364
f 362 364 332
f 363 329 365
f 363 365 364
f 364 365 366
f 364 366 332
f 365 329 367
f 365 367 366
f 366 367 368
f 366 368 332
f 367 329 369
f 367 369 368
f 368 369 370
f 368 370 332
f 369 329 371
f 369 371 370
f 370 371 372
f 370 372 332
f 371 329 373
f 371 373 372
f 372 373 374
f 372 374 332
f 373 329 375
f 373 375 374
f 374 375 376
f 374 376 332
f 375 329 377
f 375 377 376
f 376 377 378
f 376 378 332
f 377 329 379
f 377 379 378
f 378 379 380
f 378 380 332
f 379 329 381
f 379 381 380
f 380 381 382
f 380 382 332
f 381 329 383
f 381 383 382
f 382 383 384
f 382 384 332
f 383 329 385
f 383 385 384
f 384 385 386
f 384 386 332
f 385 329 387
f 385 387 386
f 386 387 388
f 386 388 332
f 387 329 389
f 387 389 388
f 388 389 390
f 388 390 332
f 389 329 391
f 389 391 390
f 390 391 392
f 390 392 332
f 391 329 393
f 391 393 392
f 392 393 394
f 392 394 332
f 393 329 330
f 393 330 394
f 394 330 331
f 394 331 332

o rear_vent_hub_1
g rear_vent_hub_1
usemtl mat_24_27_30
v -24.000000 185.200000 93.000000
v -21.800000 185.200000 93.000000
v -21.800000 181.800000 93.000000
v -24.000000 181.800000 93.000000
v -21.907676 185.200000 93.679837
v -21.907676 181.800000 93.679837
v -22.220163 185.200000 94.293128
v -22.220163 181.800000 94.293128
v -22.706872 185.200000 94.779837
v -22.706872 181.800000 94.779837
v -23.320163 185.200000 95.092324
v -23.320163 181.800000 95.092324
v -24.000000 185.200000 95.200000
v -24.000000 181.800000 95.200000
v -24.679837 185.200000 95.092324
v -24.679837 181.800000 95.092324
v -25.293128 185.200000 94.779837
v -25.293128 181.800000 94.779837
v -25.779837 185.200000 94.293128
v -25.779837 181.800000 94.293128
v -26.092324 185.200000 93.679837
v -26.092324 181.800000 93.679837
v -26.200000 185.200000 93.000000
v -26.200000 181.800000 93.000000
v -26.092324 185.200000 92.320163
v -26.092324 181.800000 92.320163
v -25.779837 185.200000 91.706872
v -25.779837 181.800000 91.706872
v -25.293128 185.200000 91.220163
v -25.293128 181.800000 91.220163
v -24.679837 185.200000 90.907676
v -24.679837 181.800000 90.907676
v -24.000000 185.200000 90.800000
v -24.000000 181.800000 90.800000
v -23.320163 185.200000 90.907676
v -23.320163 181.800000 90.907676
v -22.706872 185.200000 91.220163
v -22.706872 181.800000 91.220163
v -22.220163 185.200000 91.706872
v -22.220163 181.800000 91.706872
v -21.907676 185.200000 92.320163
v -21.907676 181.800000 92.320163
f 396 395 399
f 396 399 397
f 397 399 400
f 397 400 398
f 399 395 401
f 399 401 400
f 400 401 402
f 400 402 398
f 401 395 403
f 401 403 402
f 402 403 404
f 402 404 398
f 403 395 405
f 403 405 404
f 404 405 406
f 404 406 398
f 405 395 407
f 405 407 406
f 406 407 408
f 406 408 398
f 407 395 409
f 407 409 408
f 408 409 410
f 408 410 398
f 409 395 411
f 409 411 410
f 410 411 412
f 410 412 398
f 411 395 413
f 411 413 412
f 412 413 414
f 412 414 398
f 413 395 415
f 413 415 414
f 414 415 416
f 414 416 398
f 415 395 417
f 415 417 416
f 416 417 418
f 416 418 398
f 417 395 419
f 417 419 418
f 418 419 420
f 418 420 398
f 419 395 421
f 419 421 420
f 420 421 422
f 420 422 398
f 421 395 423
f 421 423 422
f 422 423 424
f 422 424 398
f 423 395 425
f 423 425 424
f 424 425 426
f 424 426 398
f 425 395 427
f 425 427 426
f 426 427 428
f 426 428 398
f 427 395 429
f 427 429 428
f 428 429 430
f 428 430 398
f 429 395 431
f 429 431 430
f 430 431 432
f 430 432 398
f 431 395 433
f 431 433 432
f 432 433 434
f 432 434 398
f 433 395 435
f 433 435 434
f 434 435 436
f 434 436 398
f 435 395 396
f 435 396 436
f 436 396 397
f 436 397 398

o rear_vent_disc_2
g rear_vent_disc_2
usemtl mat_125_128_130
v -24.000000 183.300000 113.000000
v -16.200000 183.300000 113.000000
v -16.200000 180.300000 113.000000
v -24.000000 180.300000 113.000000
v -16.349875 183.300000 114.521705
v -16.349875 180.300000 114.521705
v -16.793740 183.300000 115.984931
v -16.793740 180.300000 115.984931
v -17.514537 183.300000 117.333448
v -17.514537 180.300000 117.333448
v -18.484567 183.300000 118.515433
v -18.484567 180.300000 118.515433
v -19.666552 183.300000 119.485463
v -19.666552 180.300000 119.485463
v -21.015069 183.300000 120.206260
v -21.015069 180.300000 120.206260
v -22.478295 183.300000 120.650125
v -22.478295 180.300000 120.650125
v -24.000000 183.300000 120.800000
v -24.000000 180.300000 120.800000
v -25.521705 183.300000 120.650125
v -25.521705 180.300000 120.650125
v -26.984931 183.300000 120.206260
v -26.984931 180.300000 120.206260
v -28.333448 183.300000 119.485463
v -28.333448 180.300000 119.485463
v -29.515433 183.300000 118.515433
v -29.515433 180.300000 118.515433
v -30.485463 183.300000 117.333448
v -30.485463 180.300000 117.333448
v -31.206260 183.300000 115.984931
v -31.206260 180.300000 115.984931
v -31.650125 183.300000 114.521705
v -31.650125 180.300000 114.521705
v -31.800000 183.300000 113.000000
v -31.800000 180.300000 113.000000
v -31.650125 183.300000 111.478295
v -31.650125 180.300000 111.478295
v -31.206260 183.300000 110.015069
v -31.206260 180.300000 110.015069
v -30.485463 183.300000 108.666552
v -30.485463 180.300000 108.666552
v -29.515433 183.300000 107.484567
v -29.515433 180.300000 107.484567
v -28.333448 183.300000 106.514537
v -28.333448 180.300000 106.514537
v -26.984931 183.300000 105.793740
v -26.984931 180.300000 105.793740
v -25.521705 183.300000 105.349875
v -25.521705 180.300000 105.349875
v -24.000000 183.300000 105.200000
v -24.000000 180.300000 105.200000
v -22.478295 183.300000 105.349875
v -22.478295 180.300000 105.349875
v -21.015069 183.300000 105.793740
v -21.015069 180.300000 105.793740
v -19.666552 183.300000 106.514537
v -19.666552 180.300000 106.514537
v -18.484567 183.300000 107.484567
v -18.484567 180.300000 107.484567
v -17.514537 183.300000 108.666552
v -17.514537 180.300000 108.666552
v -16.793740 183.300000 110.015069
v -16.793740 180.300000 110.015069
v -16.349875 183.300000 111.478295
v -16.349875 180.300000 111.478295
f 438 437 441
f 438 441 439
f 439 441 442
f 439 442 440
f 441 437 443
f 441 443 442
f 442 443 444
f 442 444 440
f 443 437 445
f 443 445 444
f 444 445 446
f 444 446 440
f 445 437 447
f 445 447 446
f 446 447 448
f 446 448 440
f 447 437 449
f 447 449 448
f 448 449 450
f 448 450 440
f 449 437 451
f 449 451 450
f 450 451 452
f 450 452 440
f 451 437 453
f 451 453 452
f 452 453 454
f 452 454 440
f 453 437 455
f 453 455 454
f 454 455 456
f 454 456 440
f 455 437 457
f 455 457 456
f 456 457 458
f 456 458 440
f 457 437 459
f 457 459 458
f 458 459 460
f 458 460 440
f 459 437 461
f 459 461 460
f 460 461 462
f 460 462 440
f 461 437 463
f 461 463 462
f 462 463 464
f 462 464 440
f 463 437 465
f 463 465 464
f 464 465 466
f 464 466 440
f 465 437 467
f 465 467 466
f 466 467 468
f 466 468 440
f 467 437 469
f 467 469 468
f 468 469 470
f 468 470 440
f 469 437 471
f 469 471 470
f 470 471 472
f 470 472 440
f 471 437 473
f 471 473 472
f 472 473 474
f 472 474 440
f 473 437 475
f 473 475 474
f 474 475 476
f 474 476 440
f 475 437 477
f 475 477 476
f 476 477 478
f 476 478 440
f 477 437 479
f 477 479 478
f 478 479 480
f 478 480 440
f 479 437 481
f 479 481 480
f 480 481 482
f 480 482 440
f 481 437 483
f 481 483 482
f 482 483 484
f 482 484 440
f 483 437 485
f 483 485 484
f 484 485 486
f 484 486 440
f 485 437 487
f 485 487 486
f 486 487 488
f 486 488 440
f 487 437 489
f 487 489 488
f 488 489 490
f 488 490 440
f 489 437 491
f 489 491 490
f 490 491 492
f 490 492 440
f 491 437 493
f 491 493 492
f 492 493 494
f 492 494 440
f 493 437 495
f 493 495 494
f 494 495 496
f 494 496 440
f 495 437 497
f 495 497 496
f 496 497 498
f 496 498 440
f 497 437 499
f 497 499 498
f 498 499 500
f 498 500 440
f 499 437 501
f 499 501 500
f 500 501 502
f 500 502 440
f 501 437 438
f 501 438 502
f 502 438 439
f 502 439 440

o rear_vent_hub_2
g rear_vent_hub_2
usemtl mat_24_27_30
v -24.000000 185.200000 113.000000
v -21.800000 185.200000 113.000000
v -21.800000 181.800000 113.000000
v -24.000000 181.800000 113.000000
v -21.907676 185.200000 113.679837
v -21.907676 181.800000 113.679837
v -22.220163 185.200000 114.293128
v -22.220163 181.800000 114.293128
v -22.706872 185.200000 114.779837
v -22.706872 181.800000 114.779837
v -23.320163 185.200000 115.092324
v -23.320163 181.800000 115.092324
v -24.000000 185.200000 115.200000
v -24.000000 181.800000 115.200000
v -24.679837 185.200000 115.092324
v -24.679837 181.800000 115.092324
v -25.293128 185.200000 114.779837
v -25.293128 181.800000 114.779837
v -25.779837 185.200000 114.293128
v -25.779837 181.800000 114.293128
v -26.092324 185.200000 113.679837
v -26.092324 181.800000 113.679837
v -26.200000 185.200000 113.000000
v -26.200000 181.800000 113.000000
v -26.092324 185.200000 112.320163
v -26.092324 181.800000 112.320163
v -25.779837 185.200000 111.706872
v -25.779837 181.800000 111.706872
v -25.293128 185.200000 111.220163
v -25.293128 181.800000 111.220163
v -24.679837 185.200000 110.907676
v -24.679837 181.800000 110.907676
v -24.000000 185.200000 110.800000
v -24.000000 181.800000 110.800000
v -23.320163 185.200000 110.907676
v -23.320163 181.800000 110.907676
v -22.706872 185.200000 111.220163
v -22.706872 181.800000 111.220163
v -22.220163 185.200000 111.706872
v -22.220163 181.800000 111.706872
v -21.907676 185.200000 112.320163
v -21.907676 181.800000 112.320163
f 504 503 507
f 504 507 505
f 505 507 508
f 505 508 506
f 507 503 509
f 507 509 508
f 508 509 510
f 508 510 506
f 509 503 511
f 509 511 510
f 510 511 512
f 510 512 506
f 511 503 513
f 511 513 512
f 512 513 514
f 512 514 506
f 513 503 515
f 513 515 514
f 514 515 516
f 514 516 506
f 515 503 517
f 515 517 516
f 516 517 518
f 516 518 506
f 517 503 519
f 517 519 518
f 518 519 520
f 518 520 506
f 519 503 521
f 519 521 520
f 520 521 522
f 520 522 506
f 521 503 523
f 521 523 522
f 522 523 524
f 522 524 506
f 523 503 525
f 523 525 524
f 524 525 526
f 524 526 506
f 525 503 527
f 525 527 526
f 526 527 528
f 526 528 506
f 527 503 529
f 527 529 528
f 528 529 530
f 528 530 506
f 529 503 531
f 529 531 530
f 530 531 532
f 530 532 506
f 531 503 533
f 531 533 532
f 532 533 534
f 532 534 506
f 533 503 535
f 533 535 534
f 534 535 536
f 534 536 506
f 535 503 537
f 535 537 536
f 536 537 538
f 536 538 506
f 537 503 539
f 537 539 538
f 538 539 540
f 538 540 506
f 539 503 541
f 539 541 540
f 540 541 542
f 540 542 506
f 541 503 543
f 541 543 542
f 542 543 544
f 542 544 506
f 543 503 504
f 543 504 544
f 544 504 505
f 544 505 506

o top_fan_1
g top_fan_1
usemtl mat_125_128_130
v -36.000000 161.000000 170.400000
v -27.500000 161.000000 170.400000
v -27.500000 161.000000 173.600000
v -36.000000 161.000000 173.600000
v -27.713113 162.891428 170.400000
v -27.713113 162.891428 173.600000
v -28.341765 164.688012 170.400000
v -28.341765 164.688012 173.600000
v -29.354432 166.299663 170.400000
v -29.354432 166.299663 173.600000
v -30.700337 167.645568 170.400000
v -30.700337 167.645568 173.600000
v -32.311988 168.658235 170.400000
v -32.311988 168.658235 173.600000
v -34.108572 169.286887 170.400000
v -34.108572 169.286887 173.600000
v -36.000000 169.500000 170.400000
v -36.000000 169.500000 173.600000
v -37.891428 169.286887 170.400000
v -37.891428 169.286887 173.600000
v -39.688012 168.658235 170.400000
v -39.688012 168.658235 173.600000
v -41.299663 167.645568 170.400000
v -41.299663 167.645568 173.600000
v -42.645568 166.299663 170.400000
v -42.645568 166.299663 173.600000
v -43.658235 164.688012 170.400000
v -43.658235 164.688012 173.600000
v -44.286887 162.891428 170.400000
v -44.286887 162.891428 173.600000
v -44.500000 161.000000 170.400000
v -44.500000 161.000000 173.600000
v -44.286887 159.108572 170.400000
v -44.286887 159.108572 173.600000
v -43.658235 157.311988 170.400000
v -43.658235 157.311988 173.600000
v -42.645568 155.700337 170.400000
v -42.645568 155.700337 173.600000
v -41.299663 154.354432 170.400000
v -41.299663 154.354432 173.600000
v -39.688012 153.341765 170.400000
v -39.688012 153.341765 173.600000
v -37.891428 152.713113 170.400000
v -37.891428 152.713113 173.600000
v -36.000000 152.500000 170.400000
v -36.000000 152.500000 173.600000
v -34.108572 152.713113 170.400000
v -34.108572 152.713113 173.600000
v -32.311988 153.341765 170.400000
v -32.311988 153.341765 173.600000
v -30.700337 154.354432 170.400000
v -30.700337 154.354432 173.600000
v -29.354432 155.700337 170.400000
v -29.354432 155.700337 173.600000
v -28.341765 157.311988 170.400000
v -28.341765 157.311988 173.600000
v -27.713113 159.108572 170.400000
v -27.713113 159.108572 173.600000
f 546 545 549
f 546 549 547
f 547 549 550
f 547 550 548
f 549 545 551
f 549 551 550
f 550 551 552
f 550 552 548
f 551 545 553
f 551 553 552
f 552 553 554
f 552 554 548
f 553 545 555
f 553 555 554
f 554 555 556
f 554 556 548
f 555 545 557
f 555 557 556
f 556 557 558
f 556 558 548
f 557 545 559
f 557 559 558
f 558 559 560
f 558 560 548
f 559 545 561
f 559 561 560
f 560 561 562
f 560 562 548
f 561 545 563
f 561 563 562
f 562 563 564
f 562 564 548
f 563 545 565
f 563 565 564
f 564 565 566
f 564 566 548
f 565 545 567
f 565 567 566
f 566 567 568
f 566 568 548
f 567 545 569
f 567 569 568
f 568 569 570
f 568 570 548
f 569 545 571
f 569 571 570
f 570 571 572
f 570 572 548
f 571 545 573
f 571 573 572
f 572 573 574
f 572 574 548
f 573 545 575
f 573 575 574
f 574 575 576
f 574 576 548
f 575 545 577
f 575 577 576
f 576 577 578
f 576 578 548
f 577 545 579
f 577 579 578
f 578 579 580
f 578 580 548
f 579 545 581
f 579 581 580
f 580 581 582
f 580 582 548
f 581 545 583
f 581 583 582
f 582 583 584
f 582 584 548
f 583 545 585
f 583 585 584
f 584 585 586
f 584 586 548
f 585 545 587
f 585 587 586
f 586 587 588
f 586 588 548
f 587 545 589
f 587 589 588
f 588 589 590
f 588 590 548
f 589 545 591
f 589 591 590
f 590 591 592
f 590 592 548
f 591 545 593
f 591 593 592
f 592 593 594
f 592 594 548
f 593 545 595
f 593 595 594
f 594 595 596
f 594 596 548
f 595 545 597
f 595 597 596
f 596 597 598
f 596 598 548
f 597 545 599
f 597 599 598
f 598 599 600
f 598 600 548
f 599 545 601
f 599 601 600
f 600 601 602
f 600 602 548
f 601 545 546
f 601 546 602
f 602 546 547
f 602 547 548

o top_fan_hub_1
g top_fan_hub_1
usemtl mat_24_27_30
v -36.000000 161.000000 172.050000
v -33.500000 161.000000 172.050000
v -33.500000 161.000000 175.550000
v -36.000000 161.000000 175.550000
v -33.622359 161.772542 172.050000
v -33.622359 161.772542 175.550000
v -33.977458 162.469463 172.050000
v -33.977458 162.469463 175.550000
v -34.530537 163.022542 172.050000
v -34.530537 163.022542 175.550000
v -35.227458 163.377641 172.050000
v -35.227458 163.377641 175.550000
v -36.000000 163.500000 172.050000
v -36.000000 163.500000 175.550000
v -36.772542 163.377641 172.050000
v -36.772542 163.377641 175.550000
v -37.469463 163.022542 172.050000
v -37.469463 163.022542 175.550000
v -38.022542 162.469463 172.050000
v -38.022542 162.469463 175.550000
v -38.377641 161.772542 172.050000
v -38.377641 161.772542 175.550000
v -38.500000 161.000000 172.050000
v -38.500000 161.000000 175.550000
v -38.377641 160.227458 172.050000
v -38.377641 160.227458 175.550000
v -38.022542 159.530537 172.050000
v -38.022542 159.530537 175.550000
v -37.469463 158.977458 172.050000
v -37.469463 158.977458 175.550000
v -36.772542 158.622359 172.050000
v -36.772542 158.622359 175.550000
v -36.000000 158.500000 172.050000
v -36.000000 158.500000 175.550000
v -35.227458 158.622359 172.050000
v -35.227458 158.622359 175.550000
v -34.530537 158.977458 172.050000
v -34.530537 158.977458 175.550000
v -33.977458 159.530537 172.050000
v -33.977458 159.530537 175.550000
v -33.622359 160.227458 172.050000
v -33.622359 160.227458 175.550000
f 604 603 607
f 604 607 605
f 605 607 608
f 605 608 606
f 607 603 609
f 607 609 608
f 608 609 610
f 608 610 606
f 609 603 611
f 609 611 610
f 610 611 612
f 610 612 606
f 611 603 613
f 611 613 612
f 612 613 614
f 612 614 606
f 613 603 615
f 613 615 614
f 614 615 616
f 614 616 606
f 615 603 617
f 615 617 616
f 616 617 618
f 616 618 606
f 617 603 619
f 617 619 618
f 618 619 620
f 618 620 606
f 619 603 621
f 619 621 620
f 620 621 622
f 620 622 606
f 621 603 623
f 621 623 622
f 622 623 624
f 622 624 606
f 623 603 625
f 623 625 624
f 624 625 626
f 624 626 606
f 625 603 627
f 625 627 626
f 626 627 628
f 626 628 606
f 627 603 629
f 627 629 628
f 628 629 630
f 628 630 606
f 629 603 631
f 629 631 630
f 630 631 632
f 630 632 606
f 631 603 633
f 631 633 632
f 632 633 634
f 632 634 606
f 633 603 635
f 633 635 634
f 634 635 636
f 634 636 606
f 635 603 637
f 635 637 636
f 636 637 638
f 636 638 606
f 637 603 639
f 637 639 638
f 638 639 640
f 638 640 606
f 639 603 641
f 639 641 640
f 640 641 642
f 640 642 606
f 641 603 643
f 641 643 642
f 642 643 644
f 642 644 606
f 643 603 604
f 643 604 644
f 644 604 605
f 644 605 606

o top_fan_2
g top_fan_2
usemtl mat_125_128_130
v 0.000000 161.000000 170.400000
v 8.500000 161.000000 170.400000
v 8.500000 161.000000 173.600000
v 0.000000 161.000000 173.600000
v 8.286887 162.891428 170.400000
v 8.286887 162.891428 173.600000
v 7.658235 164.688012 170.400000
v 7.658235 164.688012 173.600000
v 6.645568 166.299663 170.400000
v 6.645568 166.299663 173.600000
v 5.299663 167.645568 170.400000
v 5.299663 167.645568 173.600000
v 3.688012 168.658235 170.400000
v 3.688012 168.658235 173.600000
v 1.891428 169.286887 170.400000
v 1.891428 169.286887 173.600000
v 0.000000 169.500000 170.400000
v 0.000000 169.500000 173.600000
v -1.891428 169.286887 170.400000
v -1.891428 169.286887 173.600000
v -3.688012 168.658235 170.400000
v -3.688012 168.658235 173.600000
v -5.299663 167.645568 170.400000
v -5.299663 167.645568 173.600000
v -6.645568 166.299663 170.400000
v -6.645568 166.299663 173.600000
v -7.658235 164.688012 170.400000
v -7.658235 164.688012 173.600000
v -8.286887 162.891428 170.400000
v -8.286887 162.891428 173.600000
v -8.500000 161.000000 170.400000
v -8.500000 161.000000 173.600000
v -8.286887 159.108572 170.400000
v -8.286887 159.108572 173.600000
v -7.658235 157.311988 170.400000
v -7.658235 157.311988 173.600000
v -6.645568 155.700337 170.400000
v -6.645568 155.700337 173.600000
v -5.299663 154.354432 170.400000
v -5.299663 154.354432 173.600000
v -3.688012 153.341765 170.400000
v -3.688012 153.341765 173.600000
v -1.891428 152.713113 170.400000
v -1.891428 152.713113 173.600000
v -0.000000 152.500000 170.400000
v -0.000000 152.500000 173.600000
v 1.891428 152.713113 170.400000
v 1.891428 152.713113 173.600000
v 3.688012 153.341765 170.400000
v 3.688012 153.341765 173.600000
v 5.299663 154.354432 170.400000
v 5.299663 154.354432 173.600000
v 6.645568 155.700337 170.400000
v 6.645568 155.700337 173.600000
v 7.658235 157.311988 170.400000
v 7.658235 157.311988 173.600000
v 8.286887 159.108572 170.400000
v 8.286887 159.108572 173.600000
f 646 645 649
f 646 649 647
f 647 649 650
f 647 650 648
f 649 645 651
f 649 651 650
f 650 651 652
f 650 652 648
f 651 645 653
f 651 653 652
f 652 653 654
f 652 654 648
f 653 645 655
f 653 655 654
f 654 655 656
f 654 656 648
f 655 645 657
f 655 657 656
f 656 657 658
f 656 658 648
f 657 645 659
f 657 659 658
f 658 659 660
f 658 660 648
f 659 645 661
f 659 661 660
f 660 661 662
f 660 662 648
f 661 645 663
f 661 663 662
f 662 663 664
f 662 664 648
f 663 645 665
f 663 665 664
f 664 665 666
f 664 666 648
f 665 645 667
f 665 667 666
f 666 667 668
f 666 668 648
f 667 645 669
f 667 669 668
f 668 669 670
f 668 670 648
f 669 645 671
f 669 671 670
f 670 671 672
f 670 672 648
f 671 645 673
f 671 673 672
f 672 673 674
f 672 674 648
f 673 645 675
f 673 675 674
f 674 675 676
f 674 676 648
f 675 645 677
f 675 677 676
f 676 677 678
f 676 678 648
f 677 645 679
f 677 679 678
f 678 679 680
f 678 680 648
f 679 645 681
f 679 681 680
f 680 681 682
f 680 682 648
f 681 645 683
f 681 683 682
f 682 683 684
f 682 684 648
f 683 645 685
f 683 685 684
f 684 685 686
f 684 686 648
f 685 645 687
f 685 687 686
f 686 687 688
f 686 688 648
f 687 645 689
f 687 689 688
f 688 689 690
f 688 690 648
f 689 645 691
f 689 691 690
f 690 691 692
f 690 692 648
f 691 645 693
f 691 693 692
f 692 693 694
f 692 694 648
f 693 645 695
f 693 695 694
f 694 695 696
f 694 696 648
f 695 645 697
f 695 697 696
f 696 697 698
f 696 698 648
f 697 645 699
f 697 699 698
f 698 699 700
f 698 700 648
f 699 645 701
f 699 701 700
f 700 701 702
f 700 702 648
f 701 645 646
f 701 646 702
f 702 646 647
f 702 647 648

o top_fan_hub_2
g top_fan_hub_2
usemtl mat_24_27_30
v 0.000000 161.000000 172.050000
v 2.500000 161.000000 172.050000
v 2.500000 161.000000 175.550000
v 0.000000 161.000000 175.550000
v 2.377641 161.772542 172.050000
v 2.377641 161.772542 175.550000
v 2.022542 162.469463 172.050000
v 2.022542 162.469463 175.550000
v 1.469463 163.022542 172.050000
v 1.469463 163.022542 175.550000
v 0.772542 163.377641 172.050000
v 0.772542 163.377641 175.550000
v 0.000000 163.500000 172.050000
v 0.000000 163.500000 175.550000
v -0.772542 163.377641 172.050000
v -0.772542 163.377641 175.550000
v -1.469463 163.022542 172.050000
v -1.469463 163.022542 175.550000
v -2.022542 162.469463 172.050000
v -2.022542 162.469463 175.550000
v -2.377641 161.772542 172.050000
v -2.377641 161.772542 175.550000
v -2.500000 161.000000 172.050000
v -2.500000 161.000000 175.550000
v -2.377641 160.227458 172.050000
v -2.377641 160.227458 175.550000
v -2.022542 159.530537 172.050000
v -2.022542 159.530537 175.550000
v -1.469463 158.977458 172.050000
v -1.469463 158.977458 175.550000
v -0.772542 158.622359 172.050000
v -0.772542 158.622359 175.550000
v -0.000000 158.500000 172.050000
v -0.000000 158.500000 175.550000
v 0.772542 158.622359 172.050000
v 0.772542 158.622359 175.550000
v 1.469463 158.977458 172.050000
v 1.469463 158.977458 175.550000
v 2.022542 159.530537 172.050000
v 2.022542 159.530537 175.550000
v 2.377641 160.227458 172.050000
v 2.377641 160.227458 175.550000
f 704 703 707
f 704 707 705
f 705 707 708
f 705 708 706
f 707 703 709
f 707 709 708
f 708 709 710
f 708 710 706
f 709 703 711
f 709 711 710
f 710 711 712
f 710 712 706
f 711 703 713
f 711 713 712
f 712 713 714
f 712 714 706
f 713 703 715
f 713 715 714
f 714 715 716
f 714 716 706
f 715 703 717
f 715 717 716
f 716 717 718
f 716 718 706
f 717 703 719
f 717 719 718
f 718 719 720
f 718 720 706
f 719 703 721
f 719 721 720
f 720 721 722
f 720 722 706
f 721 703 723
f 721 723 722
f 722 723 724
f 722 724 706
f 723 703 725
f 723 725 724
f 724 725 726
f 724 726 706
f 725 703 727
f 725 727 726
f 726 727 728
f 726 728 706
f 727 703 729
f 727 729 728
f 728 729 730
f 728 730 706
f 729 703 731
f 729 731 730
f 730 731 732
f 730 732 706
f 731 703 733
f 731 733 732
f 732 733 734
f 732 734 706
f 733 703 735
f 733 735 734
f 734 735 736
f 734 736 706
f 735 703 737
f 735 737 736
f 736 737 738
f 736 738 706
f 737 703 739
f 737 739 738
f 738 739 740
f 738 740 706
f 739 703 741
f 739 741 740
f 740 741 742
f 740 742 706
f 741 703 743
f 741 743 742
f 742 743 744
f 742 744 706
f 743 703 704
f 743 704 744
f 744 704 705
f 744 705 706

o top_fan_3
g top_fan_3
usemtl mat_125_128_130
v 36.000000 161.000000 170.400000
v 44.500000 161.000000 170.400000
v 44.500000 161.000000 173.600000
v 36.000000 161.000000 173.600000
v 44.286887 162.891428 170.400000
v 44.286887 162.891428 173.600000
v 43.658235 164.688012 170.400000
v 43.658235 164.688012 173.600000
v 42.645568 166.299663 170.400000
v 42.645568 166.299663 173.600000
v 41.299663 167.645568 170.400000
v 41.299663 167.645568 173.600000
v 39.688012 168.658235 170.400000
v 39.688012 168.658235 173.600000
v 37.891428 169.286887 170.400000
v 37.891428 169.286887 173.600000
v 36.000000 169.500000 170.400000
v 36.000000 169.500000 173.600000
v 34.108572 169.286887 170.400000
v 34.108572 169.286887 173.600000
v 32.311988 168.658235 170.400000
v 32.311988 168.658235 173.600000
v 30.700337 167.645568 170.400000
v 30.700337 167.645568 173.600000
v 29.354432 166.299663 170.400000
v 29.354432 166.299663 173.600000
v 28.341765 164.688012 170.400000
v 28.341765 164.688012 173.600000
v 27.713113 162.891428 170.400000
v 27.713113 162.891428 173.600000
v 27.500000 161.000000 170.400000
v 27.500000 161.000000 173.600000
v 27.713113 159.108572 170.400000
v 27.713113 159.108572 173.600000
v 28.341765 157.311988 170.400000
v 28.341765 157.311988 173.600000
v 29.354432 155.700337 170.400000
v 29.354432 155.700337 173.600000
v 30.700337 154.354432 170.400000
v 30.700337 154.354432 173.600000
v 32.311988 153.341765 170.400000
v 32.311988 153.341765 173.600000
v 34.108572 152.713113 170.400000
v 34.108572 152.713113 173.600000
v 36.000000 152.500000 170.400000
v 36.000000 152.500000 173.600000
v 37.891428 152.713113 170.400000
v 37.891428 152.713113 173.600000
v 39.688012 153.341765 170.400000
v 39.688012 153.341765 173.600000
v 41.299663 154.354432 170.400000
v 41.299663 154.354432 173.600000
v 42.645568 155.700337 170.400000
v 42.645568 155.700337 173.600000
v 43.658235 157.311988 170.400000
v 43.658235 157.311988 173.600000
v 44.286887 159.108572 170.400000
v 44.286887 159.108572 173.600000
f 746 745 749
f 746 749 747
f 747 749 750
f 747 750 748
f 749 745 751
f 749 751 750
f 750 751 752
f 750 752 748
f 751 745 753
f 751 753 752
f 752 753 754
f 752 754 748
f 753 745 755
f 753 755 754
f 754 755 756
f 754 756 748
f 755 745 757
f 755 757 756
f 756 757 758
f 756 758 748
f 757 745 759
f 757 759 758
f 758 759 760
f 758 760 748
f 759 745 761
f 759 761 760
f 760 761 762
f 760 762 748
f 761 745 763
f 761 763 762
f 762 763 764
f 762 764 748
f 763 745 765
f 763 765 764
f 764 765 766
f 764 766 748
f 765 745 767
f 765 767 766
f 766 767 768
f 766 768 748
f 767 745 769
f 767 769 768
f 768 769 770
f 768 770 748
f 769 745 771
f 769 771 770
f 770 771 772
f 770 772 748
f 771 745 773
f 771 773 772
f 772 773 774
f 772 774 748
f 773 745 775
f 773 775 774
f 774 775 776
f 774 776 748
f 775 745 777
f 775 777 776
f 776 777 778
f 776 778 748
f 777 745 779
f 777 779 778
f 778 779 780
f 778 780 748
f 779 745 781
f 779 781 780
f 780 781 782
f 780 782 748
f 781 745 783
f 781 783 782
f 782 783 784
f 782 784 748
f 783 745 785
f 783 785 784
f 784 785 786
f 784 786 748
f 785 745 787
f 785 787 786
f 786 787 788
f 786 788 748
f 787 745 789
f 787 789 788
f 788 789 790
f 788 790 748
f 789 745 791
f 789 791 790
f 790 791 792
f 790 792 748
f 791 745 793
f 791 793 792
f 792 793 794
f 792 794 748
f 793 745 795
f 793 795 794
f 794 795 796
f 794 796 748
f 795 745 797
f 795 797 796
f 796 797 798
f 796 798 748
f 797 745 799
f 797 799 798
f 798 799 800
f 798 800 748
f 799 745 801
f 799 801 800
f 800 801 802
f 800 802 748
f 801 745 746
f 801 746 802
f 802 746 747
f 802 747 748

o top_fan_hub_3
g top_fan_hub_3
usemtl mat_24_27_30
v 36.000000 161.000000 172.050000
v 38.500000 161.000000 172.050000
v 38.500000 161.000000 175.550000
v 36.000000 161.000000 175.550000
v 38.377641 161.772542 172.050000
v 38.377641 161.772542 175.550000
v 38.022542 162.469463 172.050000
v 38.022542 162.469463 175.550000
v 37.469463 163.022542 172.050000
v 37.469463 163.022542 175.550000
v 36.772542 163.377641 172.050000
v 36.772542 163.377641 175.550000
v 36.000000 163.500000 172.050000
v 36.000000 163.500000 175.550000
v 35.227458 163.377641 172.050000
v 35.227458 163.377641 175.550000
v 34.530537 163.022542 172.050000
v 34.530537 163.022542 175.550000
v 33.977458 162.469463 172.050000
v 33.977458 162.469463 175.550000
v 33.622359 161.772542 172.050000
v 33.622359 161.772542 175.550000
v 33.500000 161.000000 172.050000
v 33.500000 161.000000 175.550000
v 33.622359 160.227458 172.050000
v 33.622359 160.227458 175.550000
v 33.977458 159.530537 172.050000
v 33.977458 159.530537 175.550000
v 34.530537 158.977458 172.050000
v 34.530537 158.977458 175.550000
v 35.227458 158.622359 172.050000
v 35.227458 158.622359 175.550000
v 36.000000 158.500000 172.050000
v 36.000000 158.500000 175.550000
v 36.772542 158.622359 172.050000
v 36.772542 158.622359 175.550000
v 37.469463 158.977458 172.050000
v 37.469463 158.977458 175.550000
v 38.022542 159.530537 172.050000
v 38.022542 159.530537 175.550000
v 38.377641 160.227458 172.050000
v 38.377641 160.227458 175.550000
f 804 803 807
f 804 807 805
f 805 807 808
f 805 808 806
f 807 803 809
f 807 809 808
f 808 809 810
f 808 810 806
f 809 803 811
f 809 811 810
f 810 811 812
f 810 812 806
f 811 803 813
f 811 813 812
f 812 813 814
f 812 814 806
f 813 803 815
f 813 815 814
f 814 815 816
f 814 816 806
f 815 803 817
f 815 817 816
f 816 817 818
f 816 818 806
f 817 803 819
f 817 819 818
f 818 819 820
f 818 820 806
f 819 803 821
f 819 821 820
f 820 821 822
f 820 822 806
f 821 803 823
f 821 823 822
f 822 823 824
f 822 824 806
f 823 803 825
f 823 825 824
f 824 825 826
f 824 826 806
f 825 803 827
f 825 827 826
f 826 827 828
f 826 828 806
f 827 803 829
f 827 829 828
f 828 829 830
f 828 830 806
f 829 803 831
f 829 831 830
f 830 831 832
f 830 832 806
f 831 803 833
f 831 833 832
f 832 833 834
f 832 834 806
f 833 803 835
f 833 835 834
f 834 835 836
f 834 836 806
f 835 803 837
f 835 837 836
f 836 837 838
f 836 838 806
f 837 803 839
f 837 839 838
f 838 839 840
f 838 840 806
f 839 803 841
f 839 841 840
f 840 841 842
f 840 842 806
f 841 803 843
f 841 843 842
f 842 843 844
f 842 844 806
f 843 803 804
f 843 804 844
f 844 804 805
f 844 805 806

o side_light_pod_L
g side_light_pod_L
usemtl mat_235_234_228
v -67.000000 158.000000 137.000000
v -67.000000 158.000000 129.500000
v -58.000000 158.000000 129.500000
v -58.000000 158.000000 137.000000
v -67.000000 159.668907 129.688041
v -58.000000 159.668907 129.688041
v -67.000000 161.254128 130.242733
v -58.000000 161.254128 130.242733
v -67.000000 162.676174 131.136264
v -58.000000 162.676174 131.136264
v -67.000000 163.863736 132.323826
v -58.000000 163.863736 132.323826
v -67.000000 164.757267 133.745872
v -58.000000 164.757267 133.745872
v -67.000000 165.311959 135.331093
v -58.000000 165.311959 135.331093
v -67.000000 165.500000 137.000000
v -58.000000 165.500000 137.000000
v -67.000000 165.311959 138.668907
v -58.000000 165.311959 138.668907
v -67.000000 164.757267 140.254128
v -58.000000 164.757267 140.254128
v -67.000000 163.863736 141.676174
v -58.000000 163.863736 141.676174
v -67.000000 162.676174 142.863736
v -58.000000 162.676174 142.863736
v -67.000000 161.254128 143.757267
v -58.000000 161.254128 143.757267
v -67.000000 159.668907 144.311959
v -58.000000 159.668907 144.311959
v -67.000000 158.000000 144.500000
v -58.000000 158.000000 144.500000
v -67.000000 156.331093 144.311959
v -58.000000 156.331093 144.311959
v -67.000000 154.745872 143.757267
v -58.000000 154.745872 143.757267
v -67.000000 153.323826 142.863736
v -58.000000 153.323826 142.863736
v -67.000000 152.136264 141.676174
v -58.000000 152.136264 141.676174
v -67.000000 151.242733 140.254128
v -58.000000 151.242733 140.254128
v -67.000000 150.688041 138.668907
v -58.000000 150.688041 138.668907
v -67.000000 150.500000 137.000000
v -58.000000 150.500000 137.000000
v -67.000000 150.688041 135.331093
v -58.000000 150.688041 135.331093
v -67.000000 151.242733 133.745872
v -58.000000 151.242733 133.745872
v -67.000000 152.136264 132.323826
v -58.000000 152.136264 132.323826
v -67.000000 153.323826 131.136264
v -58.000000 153.323826 131.136264
v -67.000000 154.745872 130.242733
v -58.000000 154.745872 130.242733
v -67.000000 156.331093 129.688041
v -58.000000 156.331093 129.688041
f 846 845 849
f 846 849 847
f 847 849 850
f 847 850 848
f 849 845 851
f 849 851 850
f 850 851 852
f 850 852 848
f 851 845 853
f 851 853 852
f 852 853 854
f 852 854 848
f 853 845 855
f 853 855 854
f 854 855 856
f 854 856 848
f 855 845 857
f 855 857 856
f 856 857 858
f 856 858 848
f 857 845 859
f 857 859 858
f 858 859 860
f 858 860 848
f 859 845 861
f 859 861 860
f 860 861 862
f 860 862 848
f 861 845 863
f 861 863 862
f 862 863 864
f 862 864 848
f 863 845 865
f 863 865 864
f 864 865 866
f 864 866 848
f 865 845 867
f 865 867 866
f 866 867 868
f 866 868 848
f 867 845 869
f 867 869 868
f 868 869 870
f 868 870 848
f 869 845 871
f 869 871 870
f 870 871 872
f 870 872 848
f 871 845 873
f 871 873 872
f 872 873 874
f 872 874 848
f 873 845 875
f 873 875 874
f 874 875 876
f 874 876 848
f 875 845 877
f 875 877 876
f 876 877 878
f 876 878 848
f 877 845 879
f 877 879 878
f 878 879 880
f 878 880 848
f 879 845 881
f 879 881 880
f 880 881 882
f 880 882 848
f 881 845 883
f 881 883 882
f 882 883 884
f 882 884 848
f 883 845 885
f 883 885 884
f 884 885 886
f 884 886 848
f 885 845 887
f 885 887 886
f 886 887 888
f 886 888 848
f 887 845 889
f 887 889 888
f 888 889 890
f 888 890 848
f 889 845 891
f 889 891 890
f 890 891 892
f 890 892 848
f 891 845 893
f 891 893 892
f 892 893 894
f 892 894 848
f 893 845 895
f 893 895 894
f 894 895 896
f 894 896 848
f 895 845 897
f 895 897 896
f 896 897 898
f 896 898 848
f 897 845 899
f 897 899 898
f 898 899 900
f 898 900 848
f 899 845 901
f 899 901 900
f 900 901 902
f 900 902 848
f 901 845 846
f 901 846 902
f 902 846 847
f 902 847 848

o side_light_lens_L
g side_light_lens_L
usemtl mat_245_180_45
v -68.250000 158.000000 137.000000
v -68.250000 158.000000 132.200000
v -66.750000 158.000000 132.200000
v -66.750000 158.000000 137.000000
v -68.250000 159.242331 132.363556
v -66.750000 159.242331 132.363556
v -68.250000 160.400000 132.843078
v -66.750000 160.400000 132.843078
v -68.250000 161.394113 133.605887
v -66.750000 161.394113 133.605887
v -68.250000 162.156922 134.600000
v -66.750000 162.156922 134.600000
v -68.250000 162.636444 135.757669
v -66.750000 162.636444 135.757669
v -68.250000 162.800000 137.000000
v -66.750000 162.800000 137.000000
v -68.250000 162.636444 138.242331
v -66.750000 162.636444 138.242331
v -68.250000 162.156922 139.400000
v -66.750000 162.156922 139.400000
v -68.250000 161.394113 140.394113
v -66.750000 161.394113 140.394113
v -68.250000 160.400000 141.156922
v -66.750000 160.400000 141.156922
v -68.250000 159.242331 141.636444
v -66.750000 159.242331 141.636444
v -68.250000 158.000000 141.800000
v -66.750000 158.000000 141.800000
v -68.250000 156.757669 141.636444
v -66.750000 156.757669 141.636444
v -68.250000 155.600000 141.156922
v -66.750000 155.600000 141.156922
v -68.250000 154.605887 140.394113
v -66.750000 154.605887 140.394113
v -68.250000 153.843078 139.400000
v -66.750000 153.843078 139.400000
v -68.250000 153.363556 138.242331
v -66.750000 153.363556 138.242331
v -68.250000 153.200000 137.000000
v -66.750000 153.200000 137.000000
v -68.250000 153.363556 135.757669
v -66.750000 153.363556 135.757669
v -68.250000 153.843078 134.600000
v -66.750000 153.843078 134.600000
v -68.250000 154.605887 133.605887
v -66.750000 154.605887 133.605887
v -68.250000 155.600000 132.843078
v -66.750000 155.600000 132.843078
v -68.250000 156.757669 132.363556
v -66.750000 156.757669 132.363556
f 904 903 907
f 904 907 905
f 905 907 908
f 905 908 906
f 907 903 909
f 907 909 908
f 908 909 910
f 908 910 906
f 909 903 911
f 909 911 910
f 910 911 912
f 910 912 906
f 911 903 913
f 911 913 912
f 912 913 914
f 912 914 906
f 913 903 915
f 913 915 914
f 914 915 916
f 914 916 906
f 915 903 917
f 915 917 916
f 916 917 918
f 916 918 906
f 917 903 919
f 917 919 918
f 918 919 920
f 918 920 906
f 919 903 921
f 919 921 920
f 920 921 922
f 920 922 906
f 921 903 923
f 921 923 922
f 922 923 924
f 922 924 906
f 923 903 925
f 923 925 924
f 924 925 926
f 924 926 906
f 925 903 927
f 925 927 926
f 926 927 928
f 926 928 906
f 927 903 929
f 927 929 928
f 928 929 930
f 928 930 906
f 929 903 931
f 929 931 930
f 930 931 932
f 930 932 906
f 931 903 933
f 931 933 932
f 932 933 934
f 932 934 906
f 933 903 935
f 933 935 934
f 934 935 936
f 934 936 906
f 935 903 937
f 935 937 936
f 936 937 938
f 936 938 906
f 937 903 939
f 937 939 938
f 938 939 940
f 938 940 906
f 939 903 941
f 939 941 940
f 940 941 942
f 940 942 906
f 941 903 943
f 941 943 942
f 942 943 944
f 942 944 906
f 943 903 945
f 943 945 944
f 944 945 946
f 944 946 906
f 945 903 947
f 945 947 946
f 946 947 948
f 946 948 906
f 947 903 949
f 947 949 948
f 948 949 950
f 948 950 906
f 949 903 951
f 949 951 950
f 950 951 952
f 950 952 906
f 951 903 904
f 951 904 952
f 952 904 905
f 952 905 906

o side_light_pod_R
g side_light_pod_R
usemtl mat_235_234_228
v 58.000000 158.000000 137.000000
v 58.000000 158.000000 129.500000
v 67.000000 158.000000 129.500000
v 67.000000 158.000000 137.000000
v 58.000000 159.668907 129.688041
v 67.000000 159.668907 129.688041
v 58.000000 161.254128 130.242733
v 67.000000 161.254128 130.242733
v 58.000000 162.676174 131.136264
v 67.000000 162.676174 131.136264
v 58.000000 163.863736 132.323826
v 67.000000 163.863736 132.323826
v 58.000000 164.757267 133.745872
v 67.000000 164.757267 133.745872
v 58.000000 165.311959 135.331093
v 67.000000 165.311959 135.331093
v 58.000000 165.500000 137.000000
v 67.000000 165.500000 137.000000
v 58.000000 165.311959 138.668907
v 67.000000 165.311959 138.668907
v 58.000000 164.757267 140.254128
v 67.000000 164.757267 140.254128
v 58.000000 163.863736 141.676174
v 67.000000 163.863736 141.676174
v 58.000000 162.676174 142.863736
v 67.000000 162.676174 142.863736
v 58.000000 161.254128 143.757267
v 67.000000 161.254128 143.757267
v 58.000000 159.668907 144.311959
v 67.000000 159.668907 144.311959
v 58.000000 158.000000 144.500000
v 67.000000 158.000000 144.500000
v 58.000000 156.331093 144.311959
v 67.000000 156.331093 144.311959
v 58.000000 154.745872 143.757267
v 67.000000 154.745872 143.757267
v 58.000000 153.323826 142.863736
v 67.000000 153.323826 142.863736
v 58.000000 152.136264 141.676174
v 67.000000 152.136264 141.676174
v 58.000000 151.242733 140.254128
v 67.000000 151.242733 140.254128
v 58.000000 150.688041 138.668907
v 67.000000 150.688041 138.668907
v 58.000000 150.500000 137.000000
v 67.000000 150.500000 137.000000
v 58.000000 150.688041 135.331093
v 67.000000 150.688041 135.331093
v 58.000000 151.242733 133.745872
v 67.000000 151.242733 133.745872
v 58.000000 152.136264 132.323826
v 67.000000 152.136264 132.323826
v 58.000000 153.323826 131.136264
v 67.000000 153.323826 131.136264
v 58.000000 154.745872 130.242733
v 67.000000 154.745872 130.242733
v 58.000000 156.331093 129.688041
v 67.000000 156.331093 129.688041
f 954 953 957
f 954 957 955
f 955 957 958
f 955 958 956
f 957 953 959
f 957 959 958
f 958 959 960
f 958 960 956
f 959 953 961
f 959 961 960
f 960 961 962
f 960 962 956
f 961 953 963
f 961 963 962
f 962 963 964
f 962 964 956
f 963 953 965
f 963 965 964
f 964 965 966
f 964 966 956
f 965 953 967
f 965 967 966
f 966 967 968
f 966 968 956
f 967 953 969
f 967 969 968
f 968 969 970
f 968 970 956
f 969 953 971
f 969 971 970
f 970 971 972
f 970 972 956
f 971 953 973
f 971 973 972
f 972 973 974
f 972 974 956
f 973 953 975
f 973 975 974
f 974 975 976
f 974 976 956
f 975 953 977
f 975 977 976
f 976 977 978
f 976 978 956
f 977 953 979
f 977 979 978
f 978 979 980
f 978 980 956
f 979 953 981
f 979 981 980
f 980 981 982
f 980 982 956
f 981 953 983
f 981 983 982
f 982 983 984
f 982 984 956
f 983 953 985
f 983 985 984
f 984 985 986
f 984 986 956
f 985 953 987
f 985 987 986
f 986 987 988
f 986 988 956
f 987 953 989
f 987 989 988
f 988 989 990
f 988 990 956
f 989 953 991
f 989 991 990
f 990 991 992
f 990 992 956
f 991 953 993
f 991 993 992
f 992 993 994
f 992 994 956
f 993 953 995
f 993 995 994
f 994 995 996
f 994 996 956
f 995 953 997
f 995 997 996
f 996 997 998
f 996 998 956
f 997 953 999
f 997 999 998
f 998 999 1000
f 998 1000 956
f 999 953 1001
f 999 1001 1000
f 1000 1001 1002
f 1000 1002 956
f 1001 953 1003
f 1001 1003 1002
f 1002 1003 1004
f 1002 1004 956
f 1003 953 1005
f 1003 1005 1004
f 1004 1005 1006
f 1004 1006 956
f 1005 953 1007
f 1005 1007 1006
f 1006 1007 1008
f 1006 1008 956
f 1007 953 1009
f 1007 1009 1008
f 1008 1009 1010
f 1008 1010 956
f 1009 953 954
f 1009 954 1010
f 1010 954 955
f 1010 955 956

o side_light_lens_R
g side_light_lens_R
usemtl mat_245_180_45
v 66.750000 158.000000 137.000000
v 66.750000 158.000000 132.200000
v 68.250000 158.000000 132.200000
v 68.250000 158.000000 137.000000
v 66.750000 159.242331 132.363556
v 68.250000 159.242331 132.363556
v 66.750000 160.400000 132.843078
v 68.250000 160.400000 132.843078
v 66.750000 161.394113 133.605887
v 68.250000 161.394113 133.605887
v 66.750000 162.156922 134.600000
v 68.250000 162.156922 134.600000
v 66.750000 162.636444 135.757669
v 68.250000 162.636444 135.757669
v 66.750000 162.800000 137.000000
v 68.250000 162.800000 137.000000
v 66.750000 162.636444 138.242331
v 68.250000 162.636444 138.242331
v 66.750000 162.156922 139.400000
v 68.250000 162.156922 139.400000
v 66.750000 161.394113 140.394113
v 68.250000 161.394113 140.394113
v 66.750000 160.400000 141.156922
v 68.250000 160.400000 141.156922
v 66.750000 159.242331 141.636444
v 68.250000 159.242331 141.636444
v 66.750000 158.000000 141.800000
v 68.250000 158.000000 141.800000
v 66.750000 156.757669 141.636444
v 68.250000 156.757669 141.636444
v 66.750000 155.600000 141.156922
v 68.250000 155.600000 141.156922
v 66.750000 154.605887 140.394113
v 68.250000 154.605887 140.394113
v 66.750000 153.843078 139.400000
v 68.250000 153.843078 139.400000
v 66.750000 153.363556 138.242331
v 68.250000 153.363556 138.242331
v 66.750000 153.200000 137.000000
v 68.250000 153.200000 137.000000
v 66.750000 153.363556 135.757669
v 68.250000 153.363556 135.757669
v 66.750000 153.843078 134.600000
v 68.250000 153.843078 134.600000
v 66.750000 154.605887 133.605887
v 68.250000 154.605887 133.605887
v 66.750000 155.600000 132.843078
v 68.250000 155.600000 132.843078
v 66.750000 156.757669 132.363556
v 68.250000 156.757669 132.363556
f 1012 1011 1015
f 1012 1015 1013
f 1013 1015 1016
f 1013 1016 1014
f 1015 1011 1017
f 1015 1017 1016
f 1016 1017 1018
f 1016 1018 1014
f 1017 1011 1019
f 1017 1019 1018
f 1018 1019 1020
f 1018 1020 1014
f 1019 1011 1021
f 1019 1021 1020
f 1020 1021 1022
f 1020 1022 1014
f 1021 1011 1023
f 1021 1023 1022
f 1022 1023 1024
f 1022 1024 1014
f 1023 1011 1025
f 1023 1025 1024
f 1024 1025 1026
f 1024 1026 1014
f 1025 1011 1027
f 1025 1027 1026
f 1026 1027 1028
f 1026 1028 1014
f 1027 1011 1029
f 1027 1029 1028
f 1028 1029 1030
f 1028 1030 1014
f 1029 1011 1031
f 1029 1031 1030
f 1030 1031 1032
f 1030 1032 1014
f 1031 1011 1033
f 1031 1033 1032
f 1032 1033 1034
f 1032 1034 1014
f 1033 1011 1035
f 1033 1035 1034
f 1034 1035 1036
f 1034 1036 1014
f 1035 1011 1037
f 1035 1037 1036
f 1036 1037 1038
f 1036 1038 1014
f 1037 1011 1039
f 1037 1039 1038
f 1038 1039 1040
f 1038 1040 1014
f 1039 1011 1041
f 1039 1041 1040
f 1040 1041 1042
f 1040 1042 1014
f 1041 1011 1043
f 1041 1043 1042
f 1042 1043 1044
f 1042 1044 1014
f 1043 1011 1045
f 1043 1045 1044
f 1044 1045 1046
f 1044 1046 1014
f 1045 1011 1047
f 1045 1047 1046
f 1046 1047 1048
f 1046 1048 1014
f 1047 1011 1049
f 1047 1049 1048
f 1048 1049 1050
f 1048 1050 1014
f 1049 1011 1051
f 1049 1051 1050
f 1050 1051 1052
f 1050 1052 1014
f 1051 1011 1053
f 1051 1053 1052
f 1052 1053 1054
f 1052 1054 1014
f 1053 1011 1055
f 1053 1055 1054
f 1054 1055 1056
f 1054 1056 1014
f 1055 1011 1057
f 1055 1057 1056
f 1056 1057 1058
f 1056 1058 1014
f 1057 1011 1059
f 1057 1059 1058
f 1058 1059 1060
f 1058 1060 1014
f 1059 1011 1012
f 1059 1012 1060
f 1060 1012 1013
f 1060 1013 1014

o top_bridge_wing
g top_bridge_wing
usemtl mat_177_113_58
v -75.000000 135.500000 213.750000
v -75.000000 135.500000 220.250000
v -75.000000 178.500000 213.750000
v -75.000000 178.500000 220.250000
v 75.000000 135.500000 213.750000
v 75.000000 135.500000 220.250000
v 75.000000 178.500000 213.750000
v 75.000000 178.500000 220.250000
f 1062 1064 1061
f 1065 1062 1061
f 1061 1064 1063
f 1063 1065 1061
f 1062 1068 1064
f 1066 1062 1065
f 1066 1068 1062
f 1064 1068 1063
f 1067 1065 1063
f 1063 1068 1067
f 1067 1066 1065
f 1068 1066 1067

o top_bridge_support_-430
g top_bridge_support_-430
usemtl mat_177_113_58
v -47.500000 152.000000 176.000000
v -47.500000 152.000000 218.000000
v -47.500000 164.000000 176.000000
v -47.500000 164.000000 218.000000
v -38.500000 152.000000 176.000000
v -38.500000 152.000000 218.000000
v -38.500000 164.000000 176.000000
v -38.500000 164.000000 218.000000
f 1070 1072 1069
f 1073 1070 1069
f 1069 1072 1071
f 1071 1073 1069
f 1070 1076 1072
f 1074 1070 1073
f 1074 1076 1070
f 1072 1076 1071
f 1075 1073 1071
f 1071 1076 1075
f 1075 1074 1073
f 1076 1074 1075

o top_bridge_support_430
g top_bridge_support_430
usemtl mat_177_113_58
v 38.500000 152.000000 176.000000
v 38.500000 152.000000 218.000000
v 38.500000 164.000000 176.000000
v 38.500000 164.000000 218.000000
v 47.500000 152.000000 176.000000
v 47.500000 152.000000 218.000000
v 47.500000 164.000000 176.000000
v 47.500000 164.000000 218.000000
f 1078 1080 1077
f 1081 1078 1077
f 1077 1080 1079
f 1079 1081 1077
f 1078 1084 1080
f 1082 1078 1081
f 1082 1084 1078
f 1080 1084 1079
f 1083 1081 1079
f 1079 1084 1083
f 1083 1082 1081
f 1084 1082 1083

o tail_end_plate_-675
g tail_end_plate_-675
usemtl mat_177_113_58
v -70.500000 135.500000 207.500000
v -70.500000 135.500000 220.500000
v -70.500000 180.500000 207.500000
v -70.500000 180.500000 220.500000
v -64.500000 135.500000 207.500000
v -64.500000 135.500000 220.500000
v -64.500000 180.500000 207.500000
v -64.500000 180.500000 220.500000
f 1086 1088 1085
f 1089 1086 1085
f 1085 1088 1087
f 1087 1089 1085
f 1086 1092 1088
f 1090 1086 1089
f 1090 1092 1086
f 1088 1092 1087
f 1091 1089 1087
f 1087 1092 1091
f 1091 1090 1089
f 1092 1090 1091

o tail_end_plate_675
g tail_end_plate_675
usemtl mat_177_113_58
v 64.500000 135.500000 207.500000
v 64.500000 135.500000 220.500000
v 64.500000 180.500000 207.500000
v 64.500000 180.500000 220.500000
v 70.500000 135.500000 207.500000
v 70.500000 135.500000 220.500000
v 70.500000 180.500000 207.500000
v 70.500000 180.500000 220.500000
f 1094 1096 1093
f 1097 1094 1093
f 1093 1096 1095
f 1095 1097 1093
f 1094 1100 1096
f 1098 1094 1097
f 1098 1100 1094
f 1096 1100 1095
f 1099 1097 1095
f 1095 1100 1099
f 1099 1098 1097
f 1100 1098 1099

o top_sensor_bar
g top_sensor_bar
usemtl mat_24_27_30
v -26.000000 127.500000 191.000000
v -26.000000 127.500000 199.000000
v -26.000000 136.500000 191.000000
v -26.000000 136.500000 199.000000
v 26.000000 127.500000 191.000000
v 26.000000 127.500000 199.000000
v 26.000000 136.500000 191.000000
v 26.000000 136.500000 199.000000
f 1102 1104 1101
f 1105 1102 1101
f 1101 1104 1103
f 1103 1105 1101
f 1102 1108 1104
f 1106 1102 1105
f 1106 1108 1102
f 1104 1108 1103
f 1107 1105 1103
f 1103 1108 1107
f 1107 1106 1105
f 1108 1106 1107

o top_sensor_1
g top_sensor_1
usemtl mat_245_180_45
v -18.000000 128.100000 195.000000
v -14.800000 128.100000 195.000000
v -14.800000 125.900000 195.000000
v -18.000000 125.900000 195.000000
v -14.909037 128.100000 195.828221
v -14.909037 125.900000 195.828221
v -15.228719 128.100000 196.600000
v -15.228719 125.900000 196.600000
v -15.737258 128.100000 197.262742
v -15.737258 125.900000 197.262742
v -16.400000 128.100000 197.771281
v -16.400000 125.900000 197.771281
v -17.171779 128.100000 198.090963
v -17.171779 125.900000 198.090963
v -18.000000 128.100000 198.200000
v -18.000000 125.900000 198.200000
v -18.828221 128.100000 198.090963
v -18.828221 125.900000 198.090963
v -19.600000 128.100000 197.771281
v -19.600000 125.900000 197.771281
v -20.262742 128.100000 197.262742
v -20.262742 125.900000 197.262742
v -20.771281 128.100000 196.600000
v -20.771281 125.900000 196.600000
v -21.090963 128.100000 195.828221
v -21.090963 125.900000 195.828221
v -21.200000 128.100000 195.000000
v -21.200000 125.900000 195.000000
v -21.090963 128.100000 194.171779
v -21.090963 125.900000 194.171779
v -20.771281 128.100000 193.400000
v -20.771281 125.900000 193.400000
v -20.262742 128.100000 192.737258
v -20.262742 125.900000 192.737258
v -19.600000 128.100000 192.228719
v -19.600000 125.900000 192.228719
v -18.828221 128.100000 191.909037
v -18.828221 125.900000 191.909037
v -18.000000 128.100000 191.800000
v -18.000000 125.900000 191.800000
v -17.171779 128.100000 191.909037
v -17.171779 125.900000 191.909037
v -16.400000 128.100000 192.228719
v -16.400000 125.900000 192.228719
v -15.737258 128.100000 192.737258
v -15.737258 125.900000 192.737258
v -15.228719 128.100000 193.400000
v -15.228719 125.900000 193.400000
v -14.909037 128.100000 194.171779
v -14.909037 125.900000 194.171779
f 1110 1109 1113
f 1110 1113 1111
f 1111 1113 1114
f 1111 1114 1112
f 1113 1109 1115
f 1113 1115 1114
f 1114 1115 1116
f 1114 1116 1112
f 1115 1109 1117
f 1115 1117 1116
f 1116 1117 1118
f 1116 1118 1112
f 1117 1109 1119
f 1117 1119 1118
f 1118 1119 1120
f 1118 1120 1112
f 1119 1109 1121
f 1119 1121 1120
f 1120 1121 1122
f 1120 1122 1112
f 1121 1109 1123
f 1121 1123 1122
f 1122 1123 1124
f 1122 1124 1112
f 1123 1109 1125
f 1123 1125 1124
f 1124 1125 1126
f 1124 1126 1112
f 1125 1109 1127
f 1125 1127 1126
f 1126 1127 1128
f 1126 1128 1112
f 1127 1109 1129
f 1127 1129 1128
f 1128 1129 1130
f 1128 1130 1112
f 1129 1109 1131
f 1129 1131 1130
f 1130 1131 1132
f 1130 1132 1112
f 1131 1109 1133
f 1131 1133 1132
f 1132 1133 1134
f 1132 1134 1112
f 1133 1109 1135
f 1133 1135 1134
f 1134 1135 1136
f 1134 1136 1112
f 1135 1109 1137
f 1135 1137 1136
f 1136 1137 1138
f 1136 1138 1112
f 1137 1109 1139
f 1137 1139 1138
f 1138 1139 1140
f 1138 1140 1112
f 1139 1109 1141
f 1139 1141 1140
f 1140 1141 1142
f 1140 1142 1112
f 1141 1109 1143
f 1141 1143 1142
f 1142 1143 1144
f 1142 1144 1112
f 1143 1109 1145
f 1143 1145 1144
f 1144 1145 1146
f 1144 1146 1112
f 1145 1109 1147
f 1145 1147 1146
f 1146 1147 1148
f 1146 1148 1112
f 1147 1109 1149
f 1147 1149 1148
f 1148 1149 1150
f 1148 1150 1112
f 1149 1109 1151
f 1149 1151 1150
f 1150 1151 1152
f 1150 1152 1112
f 1151 1109 1153
f 1151 1153 1152
f 1152 1153 1154
f 1152 1154 1112
f 1153 1109 1155
f 1153 1155 1154
f 1154 1155 1156
f 1154 1156 1112
f 1155 1109 1157
f 1155 1157 1156
f 1156 1157 1158
f 1156 1158 1112
f 1157 1109 1110
f 1157 1110 1158
f 1158 1110 1111
f 1158 1111 1112

o top_sensor_2
g top_sensor_2
usemtl mat_245_180_45
v -6.000000 128.100000 195.000000
v -2.800000 128.100000 195.000000
v -2.800000 125.900000 195.000000
v -6.000000 125.900000 195.000000
v -2.909037 128.100000 195.828221
v -2.909037 125.900000 195.828221
v -3.228719 128.100000 196.600000
v -3.228719 125.900000 196.600000
v -3.737258 128.100000 197.262742
v -3.737258 125.900000 197.262742
v -4.400000 128.100000 197.771281
v -4.400000 125.900000 197.771281
v -5.171779 128.100000 198.090963
v -5.171779 125.900000 198.090963
v -6.000000 128.100000 198.200000
v -6.000000 125.900000 198.200000
v -6.828221 128.100000 198.090963
v -6.828221 125.900000 198.090963
v -7.600000 128.100000 197.771281
v -7.600000 125.900000 197.771281
v -8.262742 128.100000 197.262742
v -8.262742 125.900000 197.262742
v -8.771281 128.100000 196.600000
v -8.771281 125.900000 196.600000
v -9.090963 128.100000 195.828221
v -9.090963 125.900000 195.828221
v -9.200000 128.100000 195.000000
v -9.200000 125.900000 195.000000
v -9.090963 128.100000 194.171779
v -9.090963 125.900000 194.171779
v -8.771281 128.100000 193.400000
v -8.771281 125.900000 193.400000
v -8.262742 128.100000 192.737258
v -8.262742 125.900000 192.737258
v -7.600000 128.100000 192.228719
v -7.600000 125.900000 192.228719
v -6.828221 128.100000 191.909037
v -6.828221 125.900000 191.909037
v -6.000000 128.100000 191.800000
v -6.000000 125.900000 191.800000
v -5.171779 128.100000 191.909037
v -5.171779 125.900000 191.909037
v -4.400000 128.100000 192.228719
v -4.400000 125.900000 192.228719
v -3.737258 128.100000 192.737258
v -3.737258 125.900000 192.737258
v -3.228719 128.100000 193.400000
v -3.228719 125.900000 193.400000
v -2.909037 128.100000 194.171779
v -2.909037 125.900000 194.171779
f 1160 1159 1163
f 1160 1163 1161
f 1161 1163 1164
f 1161 1164 1162
f 1163 1159 1165
f 1163 1165 1164
f 1164 1165 1166
f 1164 1166 1162
f 1165 1159 1167
f 1165 1167 1166
f 1166 1167 1168
f 1166 1168 1162
f 1167 1159 1169
f 1167 1169 1168
f 1168 1169 1170
f 1168 1170 1162
f 1169 1159 1171
f 1169 1171 1170
f 1170 1171 1172
f 1170 1172 1162
f 1171 1159 1173
f 1171 1173 1172
f 1172 1173 1174
f 1172 1174 1162
f 1173 1159 1175
f 1173 1175 1174
f 1174 1175 1176
f 1174 1176 1162
f 1175 1159 1177
f 1175 1177 1176
f 1176 1177 1178
f 1176 1178 1162
f 1177 1159 1179
f 1177 1179 1178
f 1178 1179 1180
f 1178 1180 1162
f 1179 1159 1181
f 1179 1181 1180
f 1180 1181 1182
f 1180 1182 1162
f 1181 1159 1183
f 1181 1183 1182
f 1182 1183 1184
f 1182 1184 1162
f 1183 1159 1185
f 1183 1185 1184
f 1184 1185 1186
f 1184 1186 1162
f 1185 1159 1187
f 1185 1187 1186
f 1186 1187 1188
f 1186 1188 1162
f 1187 1159 1189
f 1187 1189 1188
f 1188 1189 1190
f 1188 1190 1162
f 1189 1159 1191
f 1189 1191 1190
f 1190 1191 1192
f 1190 1192 1162
f 1191 1159 1193
f 1191 1193 1192
f 1192 1193 1194
f 1192 1194 1162
f 1193 1159 1195
f 1193 1195 1194
f 1194 1195 1196
f 1194 1196 1162
f 1195 1159 1197
f 1195 1197 1196
f 1196 1197 1198
f 1196 1198 1162
f 1197 1159 1199
f 1197 1199 1198
f 1198 1199 1200
f 1198 1200 1162
f 1199 1159 1201
f 1199 1201 1200
f 1200 1201 1202
f 1200 1202 1162
f 1201 1159 1203
f 1201 1203 1202
f 1202 1203 1204
f 1202 1204 1162
f 1203 1159 1205
f 1203 1205 1204
f 1204 1205 1206
f 1204 1206 1162
f 1205 1159 1207
f 1205 1207 1206
f 1206 1207 1208
f 1206 1208 1162
f 1207 1159 1160
f 1207 1160 1208
f 1208 1160 1161
f 1208 1161 1162

o top_sensor_3
g top_sensor_3
usemtl mat_245_180_45
v 6.000000 128.100000 195.000000
v 9.200000 128.100000 195.000000
v 9.200000 125.900000 195.000000
v 6.000000 125.900000 195.000000
v 9.090963 128.100000 195.828221
v 9.090963 125.900000 195.828221
v 8.771281 128.100000 196.600000
v 8.771281 125.900000 196.600000
v 8.262742 128.100000 197.262742
v 8.262742 125.900000 197.262742
v 7.600000 128.100000 197.771281
v 7.600000 125.900000 197.771281
v 6.828221 128.100000 198.090963
v 6.828221 125.900000 198.090963
v 6.000000 128.100000 198.200000
v 6.000000 125.900000 198.200000
v 5.171779 128.100000 198.090963
v 5.171779 125.900000 198.090963
v 4.400000 128.100000 197.771281
v 4.400000 125.900000 197.771281
v 3.737258 128.100000 197.262742
v 3.737258 125.900000 197.262742
v 3.228719 128.100000 196.600000
v 3.228719 125.900000 196.600000
v 2.909037 128.100000 195.828221
v 2.909037 125.900000 195.828221
v 2.800000 128.100000 195.000000
v 2.800000 125.900000 195.000000
v 2.909037 128.100000 194.171779
v 2.909037 125.900000 194.171779
v 3.228719 128.100000 193.400000
v 3.228719 125.900000 193.400000
v 3.737258 128.100000 192.737258
v 3.737258 125.900000 192.737258
v 4.400000 128.100000 192.228719
v 4.400000 125.900000 192.228719
v 5.171779 128.100000 191.909037
v 5.171779 125.900000 191.909037
v 6.000000 128.100000 191.800000
v 6.000000 125.900000 191.800000
v 6.828221 128.100000 191.909037
v 6.828221 125.900000 191.909037
v 7.600000 128.100000 192.228719
v 7.600000 125.900000 192.228719
v 8.262742 128.100000 192.737258
v 8.262742 125.900000 192.737258
v 8.771281 128.100000 193.400000
v 8.771281 125.900000 193.400000
v 9.090963 128.100000 194.171779
v 9.090963 125.900000 194.171779
f 1210 1209 1213
f 1210 1213 1211
f 1211 1213 1214
f 1211 1214 1212
f 1213 1209 1215
f 1213 1215 1214
f 1214 1215 1216
f 1214 1216 1212
f 1215 1209 1217
f 1215 1217 1216
f 1216 1217 1218
f 1216 1218 1212
f 1217 1209 1219
f 1217 1219 1218
f 1218 1219 1220
f 1218 1220 1212
f 1219 1209 1221
f 1219 1221 1220
f 1220 1221 1222
f 1220 1222 1212
f 1221 1209 1223
f 1221 1223 1222
f 1222 1223 1224
f 1222 1224 1212
f 1223 1209 1225
f 1223 1225 1224
f 1224 1225 1226
f 1224 1226 1212
f 1225 1209 1227
f 1225 1227 1226
f 1226 1227 1228
f 1226 1228 1212
f 1227 1209 1229
f 1227 1229 1228
f 1228 1229 1230
f 1228 1230 1212
f 1229 1209 1231
f 1229 1231 1230
f 1230 1231 1232
f 1230 1232 1212
f 1231 1209 1233
f 1231 1233 1232
f 1232 1233 1234
f 1232 1234 1212
f 1233 1209 1235
f 1233 1235 1234
f 1234 1235 1236
f 1234 1236 1212
f 1235 1209 1237
f 1235 1237 1236
f 1236 1237 1238
f 1236 1238 1212
f 1237 1209 1239
f 1237 1239 1238
f 1238 1239 1240
f 1238 1240 1212
f 1239 1209 1241
f 1239 1241 1240
f 1240 1241 1242
f 1240 1242 1212
f 1241 1209 1243
f 1241 1243 1242
f 1242 1243 1244
f 1242 1244 1212
f 1243 1209 1245
f 1243 1245 1244
f 1244 1245 1246
f 1244 1246 1212
f 1245 1209 1247
f 1245 1247 1246
f 1246 1247 1248
f 1246 1248 1212
f 1247 1209 1249
f 1247 1249 1248
f 1248 1249 1250
f 1248 1250 1212
f 1249 1209 1251
f 1249 1251 1250
f 1250 1251 1252
f 1250 1252 1212
f 1251 1209 1253
f 1251 1253 1252
f 1252 1253 1254
f 1252 1254 1212
f 1253 1209 1255
f 1253 1255 1254
f 1254 1255 1256
f 1254 1256 1212
f 1255 1209 1257
f 1255 1257 1256
f 1256 1257 1258
f 1256 1258 1212
f 1257 1209 1210
f 1257 1210 1258
f 1258 1210 1211
f 1258 1211 1212

o top_sensor_4
g top_sensor_4
usemtl mat_245_180_45
v 18.000000 128.100000 195.000000
v 21.200000 128.100000 195.000000
v 21.200000 125.900000 195.000000
v 18.000000 125.900000 195.000000
v 21.090963 128.100000 195.828221
v 21.090963 125.900000 195.828221
v 20.771281 128.100000 196.600000
v 20.771281 125.900000 196.600000
v 20.262742 128.100000 197.262742
v 20.262742 125.900000 197.262742
v 19.600000 128.100000 197.771281
v 19.600000 125.900000 197.771281
v 18.828221 128.100000 198.090963
v 18.828221 125.900000 198.090963
v 18.000000 128.100000 198.200000
v 18.000000 125.900000 198.200000
v 17.171779 128.100000 198.090963
v 17.171779 125.900000 198.090963
v 16.400000 128.100000 197.771281
v 16.400000 125.900000 197.771281
v 15.737258 128.100000 197.262742
v 15.737258 125.900000 197.262742
v 15.228719 128.100000 196.600000
v 15.228719 125.900000 196.600000
v 14.909037 128.100000 195.828221
v 14.909037 125.900000 195.828221
v 14.800000 128.100000 195.000000
v 14.800000 125.900000 195.000000
v 14.909037 128.100000 194.171779
v 14.909037 125.900000 194.171779
v 15.228719 128.100000 193.400000
v 15.228719 125.900000 193.400000
v 15.737258 128.100000 192.737258
v 15.737258 125.900000 192.737258
v 16.400000 128.100000 192.228719
v 16.400000 125.900000 192.228719
v 17.171779 128.100000 191.909037
v 17.171779 125.900000 191.909037
v 18.000000 128.100000 191.800000
v 18.000000 125.900000 191.800000
v 18.828221 128.100000 191.909037
v 18.828221 125.900000 191.909037
v 19.600000 128.100000 192.228719
v 19.600000 125.900000 192.228719
v 20.262742 128.100000 192.737258
v 20.262742 125.900000 192.737258
v 20.771281 128.100000 193.400000
v 20.771281 125.900000 193.400000
v 21.090963 128.100000 194.171779
v 21.090963 125.900000 194.171779
f 1260 1259 1263
f 1260 1263 1261
f 1261 1263 1264
f 1261 1264 1262
f 1263 1259 1265
f 1263 1265 1264
f 1264 1265 1266
f 1264 1266 1262
f 1265 1259 1267
f 1265 1267 1266
f 1266 1267 1268
f 1266 1268 1262
f 1267 1259 1269
f 1267 1269 1268
f 1268 1269 1270
f 1268 1270 1262
f 1269 1259 1271
f 1269 1271 1270
f 1270 1271 1272
f 1270 1272 1262
f 1271 1259 1273
f 1271 1273 1272
f 1272 1273 1274
f 1272 1274 1262
f 1273 1259 1275
f 1273 1275 1274
f 1274 1275 1276
f 1274 1276 1262
f 1275 1259 1277
f 1275 1277 1276
f 1276 1277 1278
f 1276 1278 1262
f 1277 1259 1279
f 1277 1279 1278
f 1278 1279 1280
f 1278 1280 1262
f 1279 1259 1281
f 1279 1281 1280
f 1280 1281 1282
f 1280 1282 1262
f 1281 1259 1283
f 1281 1283 1282
f 1282 1283 1284
f 1282 1284 1262
f 1283 1259 1285
f 1283 1285 1284
f 1284 1285 1286
f 1284 1286 1262
f 1285 1259 1287
f 1285 1287 1286
f 1286 1287 1288
f 1286 1288 1262
f 1287 1259 1289
f 1287 1289 1288
f 1288 1289 1290
f 1288 1290 1262
f 1289 1259 1291
f 1289 1291 1290
f 1290 1291 1292
f 1290 1292 1262
f 1291 1259 1293
f 1291 1293 1292
f 1292 1293 1294
f 1292 1294 1262
f 1293 1259 1295
f 1293 1295 1294
f 1294 1295 1296
f 1294 1296 1262
f 1295 1259 1297
f 1295 1297 1296
f 1296 1297 1298
f 1296 1298 1262
f 1297 1259 1299
f 1297 1299 1298
f 1298 1299 1300
f 1298 1300 1262
f 1299 1259 1301
f 1299 1301 1300
f 1300 1301 1302
f 1300 1302 1262
f 1301 1259 1303
f 1301 1303 1302
f 1302 1303 1304
f 1302 1304 1262
f 1303 1259 1305
f 1303 1305 1304
f 1304 1305 1306
f 1304 1306 1262
f 1305 1259 1307
f 1305 1307 1306
f 1306 1307 1308
f 1306 1308 1262
f 1307 1259 1260
f 1307 1260 1308
f 1308 1260 1261
f 1308 1261 1262
